<svg width="82" height="56" viewBox="0 0 82 56" fill="none" xmlns="http://www.w3.org/2000/svg">
<rect x="1" y="1" width="5" height="5" rx="2.5" fill="#BFD1E5"/>
<rect x="1" y="51" width="5" height="5" rx="2.5" fill="#BFD1E5"/>
<rect x="1" y="26" width="5" height="5" rx="2.5" fill="#BFD1E5"/>
<rect x="26" y="26" width="5" height="5" rx="2.5" fill="#BFD1E5"/>
<rect x="51" y="38" width="5" height="5" rx="2.5" fill="#BFD1E5"/>
<rect x="51" y="13" width="5" height="5" rx="2.5" fill="#BFD1E5"/>
<rect x="76" y="26" width="5" height="5" rx="2.5" fill="#BFD1E5"/>
<rect x="26" y="1" width="5" height="5" rx="2.5" fill="#BFD1E5"/>
<rect x="26" y="51" width="5" height="5" rx="2.5" fill="#BFD1E5"/>
<rect x="1" y="1" width="4" height="4" fill="#3B57ED"/>
<rect x="5" y="1" width="4" height="4" fill="#E3402A"/>
<path d="M26 51H1V1H26V51Z" stroke="black"/>
<path d="M26 51L76 26L26 1V51Z" stroke="black"/>
</svg>
