<svg width="111" height="91" viewBox="0 0 111 91" fill="none" xmlns="http://www.w3.org/2000/svg">
<rect x="51" y="26" width="5" height="5" rx="2.5" fill="#BFD1E5"/>
<rect x="101" y="26" width="5" height="5" rx="2.5" fill="#BFD1E5"/>
<rect x="76" y="76" width="5" height="5" rx="2.5" fill="#BFD1E5"/>
<rect x="26" y="1" width="5" height="5" rx="2.5" fill="#BFD1E5"/>
<rect x="26" y="26" width="5" height="5" rx="2.5" fill="#BFD1E5"/>
<rect x="1" y="26" width="5" height="5" rx="2.5" fill="#BFD1E5"/>
<path d="M26 1L1 26L26 51L51 26L26 1Z" stroke="black"/>
<rect x="26" y="51" width="5" height="5" rx="2.5" fill="#BFD1E5"/>
<rect x="76" y="51" width="5" height="5" rx="2.5" fill="#BFD1E5"/>
<rect x="26" y="76" width="5" height="5" rx="2.5" fill="#BFD1E5"/>
<rect x="8" y="1" width="4" height="4" fill="#2AE369"/>
<rect x="4" y="1" width="4" height="4" fill="#3B57ED"/>
<rect x="12" y="1" width="4" height="4" fill="#E3402A"/>
<path d="M76 51H26L26 76H76V51Z" stroke="black"/>
<path d="M76 51L51 26H101L76 51Z" stroke="black"/>
</svg>
