<svg width="185" height="141" viewBox="0 0 185 141" fill="none" xmlns="http://www.w3.org/2000/svg">
<rect x="50" y="25" width="5" height="5" rx="2.5" fill="#BFD1E5"/>
<rect y="75" width="5" height="5" rx="2.5" fill="#BFD1E5"/>
<rect x="37" y="112" width="5" height="5" rx="2.5" fill="#BFD1E5"/>
<rect x="25" y="125" width="5" height="5" rx="2.5" fill="#BFD1E5"/>
<rect x="75" y="125" width="5" height="5" rx="2.5" fill="#BFD1E5"/>
<rect x="75" y="100" width="5" height="5" rx="2.5" fill="#BFD1E5"/>
<rect x="150" y="100" width="5" height="5" rx="2.5" fill="#BFD1E5"/>
<rect x="150" y="125" width="5" height="5" rx="2.5" fill="#BFD1E5"/>
<rect x="150" y="75" width="5" height="5" rx="2.5" fill="#BFD1E5"/>
<rect x="50" width="5" height="5" rx="2.5" fill="#BFD1E5"/>
<rect x="75" y="75" width="5" height="5" rx="2.5" fill="#BFD1E5"/>
<rect x="100" y="50" width="5" height="5" rx="2.5" fill="#BFD1E5"/>
<rect x="100" y="75" width="5" height="5" rx="2.5" fill="#BFD1E5"/>
<rect x="100" y="112" width="5" height="5" rx="2.5" fill="#BFD1E5"/>
<rect x="126" y="100" width="5" height="5" rx="2.5" fill="#BFD1E5"/>
<rect x="50" y="100" width="5" height="5" rx="2.5" fill="#BFD1E5"/>
<rect x="25" y="50" width="5" height="5" rx="2.5" fill="#BFD1E5"/>
<rect x="50" y="76" width="5" height="5" rx="2.5" fill="#BFD1E5"/>
<rect x="85" y="61" width="5" height="5" rx="2.5" fill="#BFD1E5"/>
<rect x="75" y="36" width="5" height="5" rx="2.5" fill="#DF3C3C"/>
<rect width="4" height="4" fill="#E3402A"/>
<rect x="12" width="4" height="4" fill="#E3402A"/>
<rect x="4" width="4" height="4" fill="#3B57ED"/>
<rect x="8" width="4" height="4" fill="#2AE369"/>
<path d="M38.7219 117L28.5 127.5H153.5L102 52L38.7219 117ZM38.7219 117L88 63L51.5 25L26.5 52L2.5 79.5L38.7219 117ZM153.5 101.5V76L51.5 2L153.5 101.5Z" stroke="black"/>
</svg>
