<svg width="186" height="141" viewBox="0 0 186 141" fill="none" xmlns="http://www.w3.org/2000/svg">
<rect x="51" y="25" width="5" height="5" rx="2.5" fill="#BFD1E5"/>
<rect x="1" y="75" width="5" height="5" rx="2.5" fill="#BFD1E5"/>
<rect x="38" y="112" width="5" height="5" rx="2.5" fill="#BFD1E5"/>
<rect x="26" y="125" width="5" height="5" rx="2.5" fill="#BFD1E5"/>
<rect x="76" y="125" width="5" height="5" rx="2.5" fill="#BFD1E5"/>
<rect x="76" y="100" width="5" height="5" rx="2.5" fill="#BFD1E5"/>
<rect x="151" y="100" width="5" height="5" rx="2.5" fill="#BFD1E5"/>
<rect x="151" y="125" width="5" height="5" rx="2.5" fill="#BFD1E5"/>
<rect x="151" y="75" width="5" height="5" rx="2.5" fill="#BFD1E5"/>
<rect x="51" width="5" height="5" rx="2.5" fill="#BFD1E5"/>
<rect x="76" y="75" width="5" height="5" rx="2.5" fill="#BFD1E5"/>
<rect x="101" y="50" width="5" height="5" rx="2.5" fill="#BFD1E5"/>
<rect x="101" y="75" width="5" height="5" rx="2.5" fill="#BFD1E5"/>
<rect x="101" y="112" width="5" height="5" rx="2.5" fill="#BFD1E5"/>
<rect x="127" y="100" width="5" height="5" rx="2.5" fill="#BFD1E5"/>
<rect x="51" y="100" width="5" height="5" rx="2.5" fill="#BFD1E5"/>
<rect x="26" y="50" width="5" height="5" rx="2.5" fill="#BFD1E5"/>
<rect x="51" y="76" width="5" height="5" rx="2.5" fill="#BFD1E5"/>
<rect x="86" y="61" width="5" height="5" rx="2.5" fill="#BFD1E5"/>
<rect x="76" y="36" width="5" height="5" rx="2.5" fill="#DF3C3C"/>
<rect x="1" width="4" height="4" fill="#E3402A"/>
<rect x="5" width="4" height="4" fill="#E3402A"/>
<rect x="9" width="4" height="4" fill="#2AE369"/>
<path d="M86.5 61L26 125.5H151L86.5 61Z" stroke="black"/>
<path d="M151 101L51.5 0.5L151 75V101Z" stroke="black"/>
<path d="M38 112L1 75L51 24.5L87 60.5L38 112Z" stroke="black"/>
</svg>
