<svg width="268" height="174" viewBox="0 0 268 174" fill="none" xmlns="http://www.w3.org/2000/svg">
<rect x="50" y="25" width="5" height="5" rx="2.5" fill="#BFD1E5"/>
<rect x="35" y="73" width="5" height="5" rx="2.5" fill="#BFD1E5"/>
<rect x="175" y="50" width="5" height="5" rx="2.5" fill="#BFD1E5"/>
<rect x="162" y="100" width="5" height="5" rx="2.5" fill="#BFD1E5"/>
<rect x="25" y="125" width="5" height="5" rx="2.5" fill="#BFD1E5"/>
<rect x="150" y="150" width="5" height="5" rx="2.5" fill="#BFD1E5"/>
<rect x="225" y="137" width="5" height="5" rx="2.5" fill="#BFD1E5"/>
<rect x="211" y="150" width="5" height="5" rx="2.5" fill="#BFD1E5"/>
<rect x="248" y="112" width="5" height="5" rx="2.5" fill="#BFD1E5"/>
<rect x="200" y="63" width="5" height="5" rx="2.5" fill="#BFD1E5"/>
<rect x="85" y="50" width="5" height="5" rx="2.5" fill="#BFD1E5"/>
<rect x="136" y="123" width="5" height="5" rx="2.5" fill="#DF3C3C"/>
<rect x="50" y="90" width="5" height="5" rx="2.5" fill="#DF3C3C"/>
<rect x="186" y="60" width="5" height="5" rx="2.5" fill="#DF3C3C"/>
<rect x="175" y="137" width="5" height="5" rx="2.5" fill="#DF3C3C"/>
<rect x="125" y="75" width="5" height="5" rx="2.5" fill="#BFD1E5"/>
<rect x="200" y="112" width="5" height="5" rx="2.5" fill="#BFD1E5"/>
<rect x="225" y="100" width="5" height="5" rx="2.5" fill="#BFD1E5"/>
<rect x="200" y="86" width="5" height="5" rx="2.5" fill="#BFD1E5"/>
<rect x="150" y="75" width="5" height="5" rx="2.5" fill="#BFD1E5"/>
<rect x="100" y="75" width="5" height="5" rx="2.5" fill="#BFD1E5"/>
<rect x="137" y="50" width="5" height="5" rx="2.5" fill="#BFD1E5"/>
<rect x="175" y="88" width="5" height="5" rx="2.5" fill="#BFD1E5"/>
<rect width="4" height="4" fill="#E3402A"/>
<rect x="4" width="4" height="4" fill="#2AE369"/>
<rect x="8" width="4" height="4" fill="#2AE369"/>
<path d="M175.5 51L50.5 25L37 74.5L162.5 101.5L175.5 51Z" stroke="black"/>
<path d="M211 150L162.5 100L200 62.5L248.5 112L211 150Z" stroke="black"/>
<path d="M150 150L25 124.5L211 150H150Z" stroke="black"/>
</svg>
