<svg width="175" height="127" viewBox="0 0 175 127" fill="none" xmlns="http://www.w3.org/2000/svg">
<rect x="110" y="75" width="5" height="5" rx="2.5" fill="#BFD1E5"/>
<rect x="100" y="50" width="5" height="5" rx="2.5" fill="#BFD1E5"/>
<rect x="69" y="81" width="5" height="5" rx="2.5" fill="#BFD1E5"/>
<rect x="69" y="100" width="5" height="5" rx="2.5" fill="#BFD1E5"/>
<rect x="50" y="100" width="5" height="5" rx="2.5" fill="#BFD1E5"/>
<rect x="38" y="50" width="5" height="5" rx="2.5" fill="#BFD1E5"/>
<rect x="50" y="81" width="5" height="5" rx="2.5" fill="#BFD1E5"/>
<rect x="75" y="50" width="5" height="5" rx="2.5" fill="#BFD1E5"/>
<rect x="50" y="50" width="5" height="5" rx="2.5" fill="#BFD1E5"/>
<rect x="137" y="61" width="5" height="5" rx="2.5" fill="#BFD1E5"/>
<rect x="111" y="11" width="5" height="5" rx="2.5" fill="#BFD1E5"/>
<rect x="87" y="25" width="5" height="5" rx="2.5" fill="#BFD1E5"/>
<rect x="94" y="56" width="5" height="5" rx="2.5" fill="#BFD1E5"/>
<rect x="100" y="81" width="5" height="5" rx="2.5" fill="#BFD1E5"/>
<rect x="112" y="36" width="5" height="5" rx="2.5" fill="#BFD1E5"/>
<rect x="100" y="100" width="5" height="5" rx="2.5" fill="#BFD1E5"/>
<rect x="63" y="25" width="5" height="5" rx="2.5" fill="#BFD1E5"/>
<rect x="81" y="36" width="5" height="5" rx="2.5" fill="#DF3C3C"/>
<rect x="90" y="68" width="5" height="5" rx="2.5" fill="#DF3C3C"/>
<rect width="4" height="4" fill="#3B57ED"/>
<rect x="4" width="4" height="4" fill="#2AE369"/>
<rect x="8" width="4" height="4" fill="#2AE369"/>
<path d="M137 63.5L112.5 75.5L100.5 50.5L88.5 25.5L112.5 13L137 63.5Z" stroke="black"/>
<path d="M63.2514 25L38 50.2515L69.003 81.2544L94.2544 56.003L63.2514 25Z" stroke="black"/>
<path d="M50 100V81.5H100V100H50Z" stroke="black"/>
</svg>
