<svg width="99" height="116" viewBox="0 0 99 116" fill="none" xmlns="http://www.w3.org/2000/svg">
<rect x="11" y="25" width="5" height="5" rx="2.5" fill="#BFD1E5"/>
<rect x="11" y="75" width="5" height="5" rx="2.5" fill="#BFD1E5"/>
<rect x="11" y="50" width="5" height="5" rx="2.5" fill="#BFD1E5"/>
<rect x="61" y="85" width="5" height="5" rx="2.5" fill="#DF3C3C"/>
<rect x="50" y="50" width="5" height="5" rx="2.5" fill="#BFD1E5"/>
<rect x="35" y="25" width="5" height="5" rx="2.5" fill="#BFD1E5"/>
<rect x="50" y="100" width="5" height="5" rx="2.5" fill="#BFD1E5"/>
<rect x="50" y="75" width="5" height="5" rx="2.5" fill="#BFD1E5"/>
<rect y="75" width="5" height="5" rx="2.5" fill="#BFD1E5"/>
<rect x="25" y="75" width="5" height="5" rx="2.5" fill="#BFD1E5"/>
<rect x="75" y="75" width="5" height="5" rx="2.5" fill="#BFD1E5"/>
<rect width="4" height="4" fill="#E3402A"/>
<rect x="4" width="4" height="4" fill="#E3402A"/>
</svg>
