<svg width="173" height="133" viewBox="0 0 173 133" fill="none" xmlns="http://www.w3.org/2000/svg">
<rect x="62" y="112" width="5" height="5" rx="2.5" fill="#BFD1E5"/>
<rect x="87" y="75" width="5" height="5" rx="2.5" fill="#BFD1E5"/>
<rect x="100" y="100" width="5" height="5" rx="2.5" fill="#BFD1E5"/>
<rect x="150" y="50" width="5" height="5" rx="2.5" fill="#BFD1E5"/>
<rect x="57" y="37" width="5" height="5" rx="2.5" fill="#BFD1E5"/>
<rect x="12" y="100" width="5" height="5" rx="2.5" fill="#BFD1E5"/>
<rect x="75" y="50" width="5" height="5" rx="2.5" fill="#BFD1E5"/>
<rect x="30" y="112" width="5" height="5" rx="2.5" fill="#BFD1E5"/>
<rect x="103" y="50" width="5" height="5" rx="2.5" fill="#BFD1E5"/>
<rect x="115" y="62" width="5" height="5" rx="2.5" fill="#BFD1E5"/>
<rect x="128" y="61" width="5" height="5" rx="2.5" fill="#BFD1E5"/>
<rect x="103" y="75" width="5" height="5" rx="2.5" fill="#BFD1E5"/>
<rect x="62" y="25" width="5" height="5" rx="2.5" fill="#BFD1E5"/>
<rect x="53" y="100" width="5" height="5" rx="2.5" fill="#DF3C3C"/>
<rect x="78" y="75" width="5" height="5" rx="2.5" fill="#DF3C3C"/>
<rect width="4" height="4" fill="#E3402A"/>
<rect x="8" width="4" height="4" fill="#E3402A"/>
<rect x="4" width="4" height="4" fill="#2AE369"/>
<path d="M100 100L62 25L150.5 50L100 100Z" stroke="black" stroke-width="1.5"/>
<path d="M62 112.5L87.5 75L100 100L62 112.5Z" stroke="black" stroke-width="1.5"/>
<path d="M75 50L57 37L12 100L30 112L75 50Z" stroke="black" stroke-width="1.5"/>
</svg>
