<svg width="133" height="120" viewBox="0 0 133 120" fill="none" xmlns="http://www.w3.org/2000/svg">
<rect x="50" y="1" width="5" height="5" rx="2.5" fill="#BFD1E5"/>
<rect x="11" y="26" width="5" height="5" rx="2.5" fill="#BFD1E5"/>
<rect x="88" y="51" width="5" height="5" rx="2.5" fill="#BFD1E5"/>
<rect x="50" y="76" width="5" height="5" rx="2.5" fill="#BFD1E5"/>
<rect x="50" y="51" width="5" height="5" rx="2.5" fill="#BFD1E5"/>
<rect x="50" y="26" width="5" height="5" rx="2.5" fill="#BFD1E5"/>
<rect x="61" y="36" width="5" height="5" rx="2.5" fill="#BFD1E5"/>
<rect x="25" y="26" width="5" height="5" rx="2.5" fill="#BFD1E5"/>
<rect x="75" y="101" width="5" height="5" rx="2.5" fill="#BFD1E5"/>
<rect x="100" y="87" width="5" height="5" rx="2.5" fill="#BFD1E5"/>
<rect x="12" y="101" width="5" height="5" rx="2.5" fill="#BFD1E5"/>
<rect y="51" width="5" height="5" rx="2.5" fill="#BFD1E5"/>
<rect y="87" width="5" height="5" rx="2.5" fill="#BFD1E5"/>
<rect x="86" y="63" width="5" height="5" rx="2.5" fill="#DF3C3C"/>
<rect x="61" y="87" width="5" height="5" rx="2.5" fill="#DF3C3C"/>
<rect x="25" y="76" width="5" height="5" rx="2.5" fill="#DF3C3C"/>
<path d="M103 89L13 103.5L75 101.5L103 89Z" stroke="black"/>
<rect y="1" width="4" height="4" fill="#E3402A"/>
<rect x="4" y="1" width="4" height="4" fill="#E3402A"/>
<rect x="8" y="1" width="4" height="4" fill="#2AE369"/>
<path d="M88.5 51.5L50 1L11.5 26.5L50 77L88.5 51.5Z" stroke="black"/>
</svg>
