<svg width="100" height="116" viewBox="0 0 100 116" fill="none" xmlns="http://www.w3.org/2000/svg">
<rect x="12" y="25" width="5" height="5" rx="2.5" fill="#BFD1E5"/>
<rect x="12" y="75" width="5" height="5" rx="2.5" fill="#BFD1E5"/>
<rect x="12" y="50" width="5" height="5" rx="2.5" fill="#BFD1E5"/>
<rect x="62" y="85" width="5" height="5" rx="2.5" fill="#DF3C3C"/>
<rect x="51" y="50" width="5" height="5" rx="2.5" fill="#BFD1E5"/>
<rect x="36" y="25" width="5" height="5" rx="2.5" fill="#BFD1E5"/>
<rect x="51" y="100" width="5" height="5" rx="2.5" fill="#BFD1E5"/>
<rect x="51" y="75" width="5" height="5" rx="2.5" fill="#BFD1E5"/>
<rect x="1" y="75" width="5" height="5" rx="2.5" fill="#BFD1E5"/>
<rect x="26" y="75" width="5" height="5" rx="2.5" fill="#BFD1E5"/>
<rect x="76" y="75" width="5" height="5" rx="2.5" fill="#BFD1E5"/>
<rect x="1" width="4" height="4" fill="#E3402A"/>
<rect x="5" width="4" height="4" fill="#E3402A"/>
<path d="M12 25.5L1.5 75.5L51.5 100L12 25.5Z" stroke="black"/>
<path d="M51 75.5L36 25L76 75.5H51Z" stroke="black"/>
</svg>
