<svg width="173" height="133" viewBox="0 0 173 133" fill="none" xmlns="http://www.w3.org/2000/svg">
<rect x="60" y="112" width="5" height="5" rx="2.5" fill="#BFD1E5"/>
<rect x="86" y="75" width="5" height="5" rx="2.5" fill="#BFD1E5"/>
<rect x="96" y="100" width="5" height="5" rx="2.5" fill="#BFD1E5"/>
<rect x="147" y="50" width="5" height="5" rx="2.5" fill="#BFD1E5"/>
<rect x="9" y="87" width="5" height="5" rx="2.5" fill="#BFD1E5"/>
<rect x="25" y="100" width="5" height="5" rx="2.5" fill="#BFD1E5"/>
<rect x="59" y="37" width="5" height="5" rx="2.5" fill="#BFD1E5"/>
<rect x="72" y="50" width="5" height="5" rx="2.5" fill="#BFD1E5"/>
<rect x="100" y="50" width="5" height="5" rx="2.5" fill="#BFD1E5"/>
<rect x="125" y="50" width="5" height="5" rx="2.5" fill="#BFD1E5"/>
<rect x="100" y="75" width="5" height="5" rx="2.5" fill="#BFD1E5"/>
<rect x="60" y="25" width="5" height="5" rx="2.5" fill="#BFD1E5"/>
<rect x="50" y="100" width="5" height="5" rx="2.5" fill="#DF3C3C"/>
<rect x="75" y="75" width="5" height="5" rx="2.5" fill="#DF3C3C"/>
<rect width="4" height="4" fill="#E3402A"/>
<rect x="8" width="4" height="4" fill="#E3402A"/>
<rect x="4" width="4" height="4" fill="#2AE369"/>
<path d="M59.5 41L10 92L22.5 104L72 53.5L59.5 41Z" stroke="black"/>
<path d="M148 53.5L97 102L59.5 27L148 53.5Z" stroke="black"/>
</svg>
