<svg width="185" height="134" viewBox="0 0 185 134" fill="none" xmlns="http://www.w3.org/2000/svg">
<rect x="25" y="25" width="5" height="5" rx="2.5" fill="#BFD1E5"/>
<rect x="75" y="12" width="5" height="5" rx="2.5" fill="#BFD1E5"/>
<rect x="125" y="12" width="5" height="5" rx="2.5" fill="#BFD1E5"/>
<rect x="125" y="37" width="5" height="5" rx="2.5" fill="#BFD1E5"/>
<rect x="125" y="50" width="5" height="5" rx="2.5" fill="#BFD1E5"/>
<rect x="75" y="37" width="5" height="5" rx="2.5" fill="#BFD1E5"/>
<rect x="25" y="100" width="5" height="5" rx="2.5" fill="#BFD1E5"/>
<rect x="75" y="75" width="5" height="5" rx="2.5" fill="#BFD1E5"/>
<rect x="50" y="75" width="5" height="5" rx="2.5" fill="#BFD1E5"/>
<rect x="50" y="50" width="5" height="5" rx="2.5" fill="#BFD1E5"/>
<rect x="25" y="50" width="5" height="5" rx="2.5" fill="#BFD1E5"/>
<rect x="100" y="25" width="5" height="5" rx="2.5" fill="#BFD1E5"/>
<rect x="100" y="100" width="5" height="5" rx="2.5" fill="#BFD1E5"/>
<rect x="110" y="75" width="5" height="5" rx="2.5" fill="#BFD1E5"/>
<rect x="125" y="62" width="5" height="5" rx="2.5" fill="#DF3C3C"/>
<rect x="161" y="110" width="5" height="5" rx="2.5" fill="#BFD1E5"/>
<rect x="150" y="61" width="5" height="5" rx="2.5" fill="#BFD1E5"/>
<rect x="87" y="125" width="5" height="5" rx="2.5" fill="#BFD1E5"/>
<path d="M75 37.5L125 50L100.5 64.0805L61 86.7816M75 37.5L25 25L26.5 102L61 86.7816M75 37.5H125V12H75V37.5ZM61 86.7816L75 125L150 100L137.5 63L61 86.7816Z" stroke="black"/>
<rect width="4" height="4" fill="#E3402A"/>
<rect x="4" width="4" height="4" fill="#3B57ED"/>
<rect x="8" width="4" height="4" fill="#2AE369"/>
</svg>
