<svg width="185" height="124" viewBox="0 0 185 124" fill="none" xmlns="http://www.w3.org/2000/svg">
<rect x="25" y="25" width="5" height="5" rx="2.5" fill="#BFD1E5"/>
<rect x="75" y="12" width="5" height="5" rx="2.5" fill="#BFD1E5"/>
<rect x="125" y="12" width="5" height="5" rx="2.5" fill="#BFD1E5"/>
<rect x="125" y="37" width="5" height="5" rx="2.5" fill="#BFD1E5"/>
<rect x="125" y="50" width="5" height="5" rx="2.5" fill="#BFD1E5"/>
<rect x="75" y="37" width="5" height="5" rx="2.5" fill="#BFD1E5"/>
<rect x="25" y="100" width="5" height="5" rx="2.5" fill="#BFD1E5"/>
<rect x="75" y="75" width="5" height="5" rx="2.5" fill="#BFD1E5"/>
<rect x="50" y="75" width="5" height="5" rx="2.5" fill="#BFD1E5"/>
<rect x="50" y="50" width="5" height="5" rx="2.5" fill="#BFD1E5"/>
<rect x="25" y="50" width="5" height="5" rx="2.5" fill="#BFD1E5"/>
<rect x="100" y="25" width="5" height="5" rx="2.5" fill="#BFD1E5"/>
<rect x="100" y="87" width="5" height="5" rx="2.5" fill="#BFD1E5"/>
<rect x="120" y="75" width="5" height="5" rx="2.5" fill="#BFD1E5"/>
<rect x="112" y="62" width="5" height="5" rx="2.5" fill="#DF3C3C"/>
<rect x="145" y="95" width="5" height="5" rx="2.5" fill="#BFD1E5"/>
<rect x="136" y="62" width="5" height="5" rx="2.5" fill="#BFD1E5"/>
<rect x="82" y="107" width="5" height="5" rx="2.5" fill="#BFD1E5"/>
<rect width="4" height="4" fill="#E3402A"/>
<rect x="4" width="4" height="4" fill="#3B57ED"/>
<rect x="8" width="4" height="4" fill="#2AE369"/>
<path d="M75 37.5V11.5H125.5V37.5H75Z" stroke="black"/>
<path d="M125.5 50L25.5 100.5V25L125.5 50Z" stroke="black"/>
<path d="M75 75L82 107L145 95L137 62L75 75Z" stroke="black"/>
</svg>
