<svg width="186" height="136" viewBox="0 0 186 136" fill="none" xmlns="http://www.w3.org/2000/svg">
<rect x="1" y="52" width="5" height="5" rx="2.5" fill="#BFD1E5"/>
<rect x="1" y="77" width="5" height="5" rx="2.5" fill="#BFD1E5"/>
<rect x="76" y="127" width="5" height="5" rx="2.5" fill="#BFD1E5"/>
<rect x="76" y="102" width="5" height="5" rx="2.5" fill="#BFD1E5"/>
<rect x="151" y="102" width="5" height="5" rx="2.5" fill="#BFD1E5"/>
<rect x="151" y="127" width="5" height="5" rx="2.5" fill="#BFD1E5"/>
<rect x="151" y="77" width="5" height="5" rx="2.5" fill="#BFD1E5"/>
<rect x="26" y="27" width="5" height="5" rx="2.5" fill="#BFD1E5"/>
<rect x="51" y="27" width="5" height="5" rx="2.5" fill="#DF3C3C"/>
<rect x="51" y="2" width="5" height="5" rx="2.5" fill="#BFD1E5"/>
<rect x="76" y="77" width="5" height="5" rx="2.5" fill="#BFD1E5"/>
<rect x="101" y="52" width="5" height="5" rx="2.5" fill="#BFD1E5"/>
<rect x="101" y="77" width="5" height="5" rx="2.5" fill="#BFD1E5"/>
<rect x="101" y="114" width="5" height="5" rx="2.5" fill="#BFD1E5"/>
<rect x="127" y="102" width="5" height="5" rx="2.5" fill="#BFD1E5"/>
<rect x="51" y="102" width="5" height="5" rx="2.5" fill="#BFD1E5"/>
<rect x="26" y="52" width="5" height="5" rx="2.5" fill="#BFD1E5"/>
<rect x="51" y="78" width="5" height="5" rx="2.5" fill="#BFD1E5"/>
<rect x="76" y="37" width="5" height="5" rx="2.5" fill="#BFD1E5"/>
<rect x="86" y="63" width="5" height="5" rx="2.5" fill="#BFD1E5"/>
<rect x="62" y="102" width="5" height="5" rx="2.5" fill="#DF3C3C"/>
<rect x="151" y="87" width="5" height="5" rx="2.5" fill="#DF3C3C"/>
<rect x="1" y="2" width="4" height="4" fill="#E3402A"/>
<rect x="13" y="2" width="4" height="4" fill="#E3402A"/>
<rect x="5" y="2" width="4" height="4" fill="#3B57ED"/>
<rect x="9" y="2" width="4" height="4" fill="#2AE369"/>
<path d="M76 77.5L50.5 2L150.5 77.5H76Z" stroke="black"/>
<path d="M76.5 128V102.5H151V128H76.5Z" stroke="black"/>
<path d="M51 103L1 52.5L26 27.5L76.5 78L51 103Z" stroke="black"/>
<path d="M1.5 77V53L51.5 103L1.5 77Z" stroke="black"/>
</svg>
