<svg width="186" height="135" viewBox="0 0 186 135" fill="none" xmlns="http://www.w3.org/2000/svg">
<rect x="1" y="51" width="5" height="5" rx="2.5" fill="#BFD1E5"/>
<rect x="1" y="76" width="5" height="5" rx="2.5" fill="#BFD1E5"/>
<rect x="76" y="126" width="5" height="5" rx="2.5" fill="#BFD1E5"/>
<rect x="76" y="101" width="5" height="5" rx="2.5" fill="#BFD1E5"/>
<rect x="151" y="101" width="5" height="5" rx="2.5" fill="#BFD1E5"/>
<rect x="151" y="126" width="5" height="5" rx="2.5" fill="#BFD1E5"/>
<rect x="151" y="76" width="5" height="5" rx="2.5" fill="#BFD1E5"/>
<rect x="26" y="26" width="5" height="5" rx="2.5" fill="#BFD1E5"/>
<rect x="51" y="26" width="5" height="5" rx="2.5" fill="#DF3C3C"/>
<rect x="51" y="1" width="5" height="5" rx="2.5" fill="#BFD1E5"/>
<rect x="76" y="76" width="5" height="5" rx="2.5" fill="#BFD1E5"/>
<rect x="101" y="51" width="5" height="5" rx="2.5" fill="#BFD1E5"/>
<rect x="101" y="76" width="5" height="5" rx="2.5" fill="#BFD1E5"/>
<rect x="101" y="113" width="5" height="5" rx="2.5" fill="#BFD1E5"/>
<rect x="127" y="101" width="5" height="5" rx="2.5" fill="#BFD1E5"/>
<rect x="51" y="101" width="5" height="5" rx="2.5" fill="#BFD1E5"/>
<rect x="26" y="51" width="5" height="5" rx="2.5" fill="#BFD1E5"/>
<rect x="51" y="77" width="5" height="5" rx="2.5" fill="#BFD1E5"/>
<rect x="76" y="36" width="5" height="5" rx="2.5" fill="#BFD1E5"/>
<rect x="86" y="62" width="5" height="5" rx="2.5" fill="#BFD1E5"/>
<rect x="62" y="101" width="5" height="5" rx="2.5" fill="#DF3C3C"/>
<rect x="151" y="86" width="5" height="5" rx="2.5" fill="#DF3C3C"/>
<rect x="1" y="1" width="4" height="4" fill="#E3402A"/>
<rect x="13" y="1" width="4" height="4" fill="#E3402A"/>
<rect x="5" y="1" width="4" height="4" fill="#3B57ED"/>
<rect x="9" y="1" width="4" height="4" fill="#2AE369"/>
<path d="M76 76.5H151L51 1.5L76 76.5ZM76 76.5L51 101L1.5 51.5L26.5 26L76 76.5ZM76 126H151V101H76V126Z" stroke="black"/>
<path d="M76.5 125.5L1.5 77L52.5 103.5L76.5 125.5Z" stroke="black"/>
</svg>
