<svg width="151" height="119" viewBox="0 0 151 119" fill="none" xmlns="http://www.w3.org/2000/svg">
<rect x="51" y="30.5" width="5" height="5" rx="2.5" fill="#BFD1E5"/>
<rect x="26" y="95" width="5" height="5" rx="2.5" fill="#BFD1E5"/>
<rect x="38" y="70" width="5" height="5" rx="2.5" fill="#BFD1E5"/>
<rect x="26" y="25" width="5" height="5" rx="2.5" fill="#BFD1E5"/>
<rect x="38" y="37" width="5" height="5" rx="2.5" fill="#BFD1E5"/>
<rect x="51" y="112" width="5" height="5" rx="2.5" fill="#BFD1E5"/>
<rect x="13" y="57" width="5" height="5" rx="2.5" fill="#BFD1E5"/>
<rect x="1" y="82" width="5" height="5" rx="2.5" fill="#BFD1E5"/>
<rect x="21" y="75" width="5" height="5" rx="2.5" fill="#BFD1E5"/>
<rect x="63" y="80.5" width="5" height="5" rx="2.5" fill="#BFD1E5"/>
<rect x="76" y="62" width="5" height="5" rx="2.5" fill="#BFD1E5"/>
<rect x="101" y="37" width="5" height="5" rx="2.5" fill="#BFD1E5"/>
<rect x="76" y="37" width="5" height="5" rx="2.5" fill="#BFD1E5"/>
<rect x="121" y="37" width="5" height="5" rx="2.5" fill="#BFD1E5"/>
<rect x="88" y="50" width="5" height="5" rx="2.5" fill="#BFD1E5"/>
<rect x="113" y="68" width="5" height="5" rx="2.5" fill="#BFD1E5"/>
<rect x="88" y="75" width="5" height="5" rx="2.5" fill="#BFD1E5"/>
<rect x="113" y="25" width="5" height="5" rx="2.5" fill="#BFD1E5"/>
<rect x="108" y="57" width="5" height="5" rx="2.5" fill="#BFD1E5"/>
<rect x="63" y="37" width="5" height="5" rx="2.5" fill="#BFD1E5"/>
<rect x="138" y="62.5" width="5" height="5" rx="2.5" fill="#BFD1E5"/>
<rect x="126" y="12.5" width="5" height="5" rx="2.5" fill="#BFD1E5"/>
<path d="M63 81L51 30.5L126 12L138 62L63 81Z" stroke="black"/>
<rect x="58" y="95" width="5" height="5" rx="2.5" fill="#DF3C3C"/>
<rect x="26" y="50" width="5" height="5" rx="2.5" fill="#DF3C3C"/>
<rect x="1" width="4" height="4" fill="#E3402A"/>
<rect x="5" width="4" height="4" fill="#2AE369"/>
<rect x="9" width="4" height="4" fill="#2AE369"/>
<path d="M38.5 69.5L13.5 57.5L1 82L26.5 95.5L38.5 69.5Z" stroke="black"/>
<path d="M51.5 112.5L26 25.5L51.5 30.5V112.5Z" stroke="black"/>
</svg>
