<svg width="190" height="119" viewBox="0 0 190 119" fill="none" xmlns="http://www.w3.org/2000/svg">
<rect x="26" y="27" width="5" height="5" rx="2.5" fill="#BFD1E5"/>
<rect x="1" y="27" width="5" height="5" rx="2.5" fill="#BFD1E5"/>
<rect x="26" y="2" width="5" height="5" rx="2.5" fill="#BFD1E5"/>
<rect x="51" y="27" width="5" height="5" rx="2.5" fill="#BFD1E5"/>
<rect x="26" y="52" width="5" height="5" rx="2.5" fill="#BFD1E5"/>
<rect x="51" y="77" width="5" height="5" rx="2.5" fill="#BFD1E5"/>
<rect x="76" y="52" width="5" height="5" rx="2.5" fill="#BFD1E5"/>
<rect x="76" y="102" width="5" height="5" rx="2.5" fill="#BFD1E5"/>
<rect x="101" y="77" width="5" height="5" rx="2.5" fill="#BFD1E5"/>
<rect x="176" y="2" width="5" height="5" rx="2.5" fill="#BFD1E5"/>
<rect x="176" y="77" width="5" height="5" rx="2.5" fill="#BFD1E5"/>
<rect x="126" y="52" width="5" height="5" rx="2.5" fill="#BFD1E5"/>
<rect x="126" y="2" width="5" height="5" rx="2.5" fill="#BFD1E5"/>
<rect x="76" y="2" width="5" height="5" rx="2.5" fill="#BFD1E5"/>
<rect x="101" y="52" width="5" height="5" rx="2.5" fill="#BFD1E5"/>
<rect x="151" y="27" width="5" height="5" rx="2.5" fill="#BFD1E5"/>
<rect x="177" y="52" width="5" height="5" rx="2.5" fill="#BFD1E5"/>
<rect x="151" y="78" width="5" height="5" rx="2.5" fill="#BFD1E5"/>
<rect x="151" y="52" width="5" height="5" rx="2.5" fill="#BFD1E5"/>
<rect x="101" y="2" width="5" height="5" rx="2.5" fill="#BFD1E5"/>
<rect x="127" y="27" width="5" height="5" rx="2.5" fill="#BFD1E5"/>
<rect x="101" y="27" width="5" height="5" rx="2.5" fill="#BFD1E5"/>
<rect x="101" y="102" width="5" height="5" rx="2.5" fill="#DF3C3C"/>
<rect x="51" y="52" width="5" height="5" rx="2.5" fill="#DF3C3C"/>
<rect x="138" y="14" width="5" height="5" rx="2.5" fill="#DF3C3C"/>
<rect x="1" y="2" width="4" height="4" fill="#E3402A"/>
<rect x="13" y="2" width="4" height="4" fill="#3B57ED"/>
<rect x="9" y="2" width="4" height="4" fill="#2AE369"/>
<rect x="5" y="2" width="4" height="4" fill="#2AE369"/>
<path d="M76 52L51 77L76 102L101 77.0001L76 52Z" stroke="black"/>
<path d="M76.5 52V2H126.5V52H76.5ZM101 77.5L176.5 2V77.5H101Z" stroke="black"/>
<path d="M26.5 52L51 27L26.5 2L1 27L26.5 52Z" stroke="black"/>
</svg>
