<svg width="190" height="118" viewBox="0 0 190 118" fill="none" xmlns="http://www.w3.org/2000/svg">
<rect x="26" y="26" width="5" height="5" rx="2.5" fill="#BFD1E5"/>
<rect x="1" y="26" width="5" height="5" rx="2.5" fill="#BFD1E5"/>
<rect x="26" y="1" width="5" height="5" rx="2.5" fill="#BFD1E5"/>
<rect x="51" y="26" width="5" height="5" rx="2.5" fill="#BFD1E5"/>
<rect x="26" y="51" width="5" height="5" rx="2.5" fill="#BFD1E5"/>
<rect x="51" y="76" width="5" height="5" rx="2.5" fill="#BFD1E5"/>
<rect x="76" y="51" width="5" height="5" rx="2.5" fill="#BFD1E5"/>
<rect x="76" y="101" width="5" height="5" rx="2.5" fill="#BFD1E5"/>
<rect x="101" y="76" width="5" height="5" rx="2.5" fill="#BFD1E5"/>
<rect x="176" y="1" width="5" height="5" rx="2.5" fill="#BFD1E5"/>
<rect x="176" y="76" width="5" height="5" rx="2.5" fill="#BFD1E5"/>
<rect x="126" y="51" width="5" height="5" rx="2.5" fill="#BFD1E5"/>
<rect x="126" y="1" width="5" height="5" rx="2.5" fill="#BFD1E5"/>
<rect x="76" y="1" width="5" height="5" rx="2.5" fill="#BFD1E5"/>
<rect x="101" y="51" width="5" height="5" rx="2.5" fill="#BFD1E5"/>
<rect x="151" y="26" width="5" height="5" rx="2.5" fill="#BFD1E5"/>
<rect x="177" y="51" width="5" height="5" rx="2.5" fill="#BFD1E5"/>
<rect x="151" y="77" width="5" height="5" rx="2.5" fill="#BFD1E5"/>
<rect x="151" y="51" width="5" height="5" rx="2.5" fill="#BFD1E5"/>
<rect x="101" y="1" width="5" height="5" rx="2.5" fill="#BFD1E5"/>
<rect x="127" y="26" width="5" height="5" rx="2.5" fill="#BFD1E5"/>
<rect x="101" y="26" width="5" height="5" rx="2.5" fill="#BFD1E5"/>
<rect x="101" y="101" width="5" height="5" rx="2.5" fill="#DF3C3C"/>
<rect x="51" y="51" width="5" height="5" rx="2.5" fill="#DF3C3C"/>
<rect x="138" y="13" width="5" height="5" rx="2.5" fill="#DF3C3C"/>
<rect x="1" y="1" width="4" height="4" fill="#E3402A"/>
<rect x="13" y="1" width="4" height="4" fill="#3B57ED"/>
<rect x="9" y="1" width="4" height="4" fill="#2AE369"/>
<rect x="5" y="1" width="4" height="4" fill="#2AE369"/>
<path d="M76 51L51 76L76 101L101 76.0001L76 51Z" stroke="black"/>
<path d="M126 50.5H76V1.5H126V50.5Z" stroke="black"/>
<path d="M176 1.5L101 76H176V1.5Z" stroke="black"/>
<path d="M26.5 51L51 26L26.5 1L1 26L26.5 51Z" stroke="black"/>
</svg>
