<svg width="189" height="135" viewBox="0 0 189 135" fill="none" xmlns="http://www.w3.org/2000/svg">
<rect x="25" y="25" width="5" height="5" rx="2.5" fill="#BFD1E5"/>
<rect x="25" y="75" width="5" height="5" rx="2.5" fill="#BFD1E5"/>
<rect x="75" y="25" width="5" height="5" rx="2.5" fill="#BFD1E5"/>
<rect x="50" y="50" width="5" height="5" rx="2.5" fill="#BFD1E5"/>
<rect x="25" y="125" width="5" height="5" rx="2.5" fill="#BFD1E5"/>
<rect x="75" y="125" width="5" height="5" rx="2.5" fill="#BFD1E5"/>
<rect x="50" y="100" width="5" height="5" rx="2.5" fill="#BFD1E5"/>
<rect x="75" y="75" width="5" height="5" rx="2.5" fill="#BFD1E5"/>
<rect x="100" y="50" width="5" height="5" rx="2.5" fill="#BFD1E5"/>
<rect x="112" y="50" width="5" height="5" rx="2.5" fill="#BFD1E5"/>
<rect x="100" y="75" width="5" height="5" rx="2.5" fill="#BFD1E5"/>
<rect x="125" y="25" width="5" height="5" rx="2.5" fill="#BFD1E5"/>
<rect x="175" y="25" width="5" height="5" rx="2.5" fill="#BFD1E5"/>
<rect x="175" y="50" width="5" height="5" rx="2.5" fill="#BFD1E5"/>
<rect x="125" y="50" width="5" height="5" rx="2.5" fill="#BFD1E5"/>
<rect x="150" y="50" width="5" height="5" rx="2.5" fill="#BFD1E5"/>
<rect x="125" y="75" width="5" height="5" rx="2.5" fill="#BFD1E5"/>
<rect x="100" y="100" width="5" height="5" rx="2.5" fill="#BFD1E5"/>
<rect x="75" y="100" width="5" height="5" rx="2.5" fill="#BFD1E5"/>
<rect x="75" y="50" width="5" height="5" rx="2.5" fill="#DF3C3C"/>
<rect x="112" y="87" width="5" height="5" rx="2.5" fill="#DF3C3C"/>
<path d="M75 75L125 25V75H75Z" stroke="black"/>
<path d="M25 126V25H75L25 126Z" stroke="black"/>
<path d="M75 129L51 105L75 75L99 99L75 129Z" stroke="black"/>
<path d="M175 25H125V49H175V25Z" stroke="black"/>
<rect width="4" height="4" fill="#E3402A"/>
<rect x="8" width="4" height="4" fill="#3B57ED"/>
<rect x="12" width="4" height="4" fill="#2AE369"/>
<rect x="4" width="4" height="4" fill="#E3402A"/>
</svg>
