<svg width="149" height="117" viewBox="0 0 149 117" fill="none" xmlns="http://www.w3.org/2000/svg">
<rect x="44" y="12" width="5" height="5" rx="2.5" fill="#BFD1E5"/>
<rect x="94" y="37" width="5" height="5" rx="2.5" fill="#BFD1E5"/>
<rect x="112" y="37" width="5" height="5" rx="2.5" fill="#BFD1E5"/>
<rect x="112" y="12" width="5" height="5" rx="2.5" fill="#BFD1E5"/>
<rect x="94" y="12" width="5" height="5" rx="2.5" fill="#BFD1E5"/>
<rect x="137" y="62" width="5" height="5" rx="2.5" fill="#BFD1E5"/>
<rect x="100" y="100" width="5" height="5" rx="2.5" fill="#BFD1E5"/>
<rect x="75" y="75" width="5" height="5" rx="2.5" fill="#BFD1E5"/>
<rect x="75" y="100" width="5" height="5" rx="2.5" fill="#BFD1E5"/>
<rect x="25" y="100" width="5" height="5" rx="2.5" fill="#BFD1E5"/>
<rect x="25" y="75" width="5" height="5" rx="2.5" fill="#BFD1E5"/>
<rect x="50" y="62" width="5" height="5" rx="2.5" fill="#BFD1E5"/>
<rect x="50" y="75" width="5" height="5" rx="2.5" fill="#BFD1E5"/>
<rect x="100" y="75" width="5" height="5" rx="2.5" fill="#BFD1E5"/>
<rect x="100" y="87" width="5" height="5" rx="2.5" fill="#BFD1E5"/>
<rect x="100" y="50" width="5" height="5" rx="2.5" fill="#BFD1E5"/>
<rect x="62" y="50" width="5" height="5" rx="2.5" fill="#BFD1E5"/>
<rect x="50" y="50" width="5" height="5" rx="2.5" fill="#BFD1E5"/>
<rect x="50" y="25" width="5" height="5" rx="2.5" fill="#BFD1E5"/>
<rect x="50" y="100" width="5" height="5" rx="2.5" fill="#BFD1E5"/>
<rect x="25" y="50" width="5" height="5" rx="2.5" fill="#BFD1E5"/>
<rect x="25" y="62" width="5" height="5" rx="2.5" fill="#DF3C3C"/>
<rect x="87" y="100" width="5" height="5" rx="2.5" fill="#DF3C3C"/>
<rect x="75" y="12" width="5" height="5" rx="2.5" fill="#DF3C3C"/>
<rect x="4" width="4" height="4" fill="#2AE369"/>
<rect width="4" height="4" fill="#2AE369"/>
<rect x="12" width="4" height="4" fill="#3B57ED"/>
<rect x="8" width="4" height="4" fill="#3B57ED"/>
<path d="M75 75L25 50L44 12L94 37L75 75Z" stroke="black"/>
<path d="M112 37L75 75.5L100 100L137 62L112 37Z" stroke="black"/>
<path d="M112 37H94.5V12H112V37Z" stroke="black"/>
<path d="M25 75.5H75V100H25V75.5Z" stroke="black"/>
</svg>
