<svg width="149" height="117" viewBox="0 0 149 117" fill="none" xmlns="http://www.w3.org/2000/svg">
<rect x="12" y="62" width="5" height="5" rx="2.5" fill="#BFD1E5"/>
<rect x="50" y="25" width="5" height="5" rx="2.5" fill="#BFD1E5"/>
<rect x="87" y="12" width="5" height="5" rx="2.5" fill="#BFD1E5"/>
<rect x="87" y="37" width="5" height="5" rx="2.5" fill="#BFD1E5"/>
<rect x="87" y="62" width="5" height="5" rx="2.5" fill="#BFD1E5"/>
<rect x="87" y="75" width="5" height="5" rx="2.5" fill="#BFD1E5"/>
<rect x="100" y="62" width="5" height="5" rx="2.5" fill="#BFD1E5"/>
<rect x="75" y="25" width="5" height="5" rx="2.5" fill="#BFD1E5"/>
<rect x="75" y="12" width="5" height="5" rx="2.5" fill="#BFD1E5"/>
<rect x="50" y="12" width="5" height="5" rx="2.5" fill="#BFD1E5"/>
<rect x="62" y="37" width="5" height="5" rx="2.5" fill="#BFD1E5"/>
<rect x="37" y="62" width="5" height="5" rx="2.5" fill="#BFD1E5"/>
<rect x="62" y="75" width="5" height="5" rx="2.5" fill="#BFD1E5"/>
<rect x="62" y="62" width="5" height="5" rx="2.5" fill="#BFD1E5"/>
<rect x="25" y="75" width="5" height="5" rx="2.5" fill="#BFD1E5"/>
<rect x="50" y="100" width="5" height="5" rx="2.5" fill="#BFD1E5"/>
<rect x="62" y="100" width="5" height="5" rx="2.5" fill="#DF3C3C"/>
<rect x="37" y="69" width="5" height="5" rx="2.5" fill="#DF3C3C"/>
<rect x="50" y="75" width="5" height="5" rx="2.5" fill="#BFD1E5"/>
<rect x="37" y="87" width="5" height="5" rx="2.5" fill="#BFD1E5"/>
<rect x="75" y="100" width="5" height="5" rx="2.5" fill="#BFD1E5"/>
<rect x="100" y="100" width="5" height="5" rx="2.5" fill="#BFD1E5"/>
<rect x="100" y="75" width="5" height="5" rx="2.5" fill="#BFD1E5"/>
<rect x="75" y="75" width="5" height="5" rx="2.5" fill="#BFD1E5"/>
<rect x="75" y="87" width="5" height="5" rx="2.5" fill="#BFD1E5"/>
<rect x="37" y="112" width="5" height="5" rx="2.5" fill="#BFD1E5"/>
<rect x="12" y="87" width="5" height="5" rx="2.5" fill="#BFD1E5"/>
<rect x="4" width="4" height="4" fill="#E3402A"/>
<rect width="4" height="4" fill="#E3402A"/>
<rect x="16" width="4" height="4" fill="#3B57ED"/>
<rect x="20" width="4" height="4" fill="#3B57ED"/>
<rect x="8" width="4" height="4" fill="#2AE369"/>
<rect x="12" width="4" height="4" fill="#2AE369"/>
<path d="M75 100V75H100V100H75Z" stroke="black"/>
<path d="M100.5 62H37L87.5 12L100.5 62Z" stroke="black"/>
<path d="M15 89L39.5 88V115L15 89Z" stroke="black"/>
<path d="M75 75L50 100L39 88L61.5 62L75 75Z" stroke="black"/>
<path d="M50 25L62 37L24.5 75L12 62L50 25Z" stroke="black"/>
</svg>
