<svg width="141" height="138" viewBox="0 0 141 138" fill="none" xmlns="http://www.w3.org/2000/svg">
<rect x="51" y="1" width="5" height="5" rx="2.5" fill="#BFD1E5"/>
<rect x="51" y="26" width="5" height="5" rx="2.5" fill="#BFD1E5"/>
<rect x="51" y="51" width="5" height="5" rx="2.5" fill="#BFD1E5"/>
<rect x="51" y="101" width="5" height="5" rx="2.5" fill="#BFD1E5"/>
<rect x="76" y="126" width="5" height="5" rx="2.5" fill="#BFD1E5"/>
<rect x="26" y="26" width="5" height="5" rx="2.5" fill="#BFD1E5"/>
<rect x="76" y="26" width="5" height="5" rx="2.5" fill="#BFD1E5"/>
<rect x="26" y="51" width="5" height="5" rx="2.5" fill="#BFD1E5"/>
<rect x="101" y="51" width="5" height="5" rx="2.5" fill="#BFD1E5"/>
<rect x="101" y="76" width="5" height="5" rx="2.5" fill="#BFD1E5"/>
<rect x="76" y="76" width="5" height="5" rx="2.5" fill="#BFD1E5"/>
<rect x="76" y="101" width="5" height="5" rx="2.5" fill="#BFD1E5"/>
<rect x="101" y="101" width="5" height="5" rx="2.5" fill="#BFD1E5"/>
<rect x="1" y="51" width="5" height="5" rx="2.5" fill="#BFD1E5"/>
<rect x="26" y="76" width="5" height="5" rx="2.5" fill="#BFD1E5"/>
<rect x="76" y="51" width="5" height="5" rx="2.5" fill="#DF3C3C"/>
<rect x="51" y="76" width="5" height="5" rx="2.5" fill="#DF3C3C"/>
<rect x="126" y="76" width="5" height="5" rx="2.5" fill="#BFD1E5"/>
<rect x="8" y="1" width="4" height="4" fill="#2AE369"/>
<rect x="12" y="1" width="4" height="4" fill="#2AE369"/>
<path d="M26 76.5L1.5 51L51 1.5L77 26.5L26 76.5Z" stroke="black"/>
<path d="M101.5 50.5L52 101.5L76.5 126L126.5 76L101.5 50.5Z" stroke="black"/>
</svg>
