<svg width="134" height="121" viewBox="0 0 134 121" fill="none" xmlns="http://www.w3.org/2000/svg">
<rect x="100.326" y="100" width="5" height="5" rx="2.5" fill="#DF3C3C"/>
<rect x="75.326" y="100" width="5" height="5" rx="2.5" fill="#BFD1E5"/>
<rect x="50.326" y="100" width="5" height="5" rx="2.5" fill="#BFD1E5"/>
<rect x="50.326" y="75" width="5" height="5" rx="2.5" fill="#BFD1E5"/>
<rect x="75.326" y="75" width="5" height="5" rx="2.5" fill="#BFD1E5"/>
<rect x="75.326" y="50" width="5" height="5" rx="2.5" fill="#BFD1E5"/>
<rect x="100.326" y="50" width="5" height="5" rx="2.5" fill="#BFD1E5"/>
<rect x="25.326" y="50" width="5" height="5" rx="2.5" fill="#BFD1E5"/>
<rect x="0.826004" y="25" width="5" height="5" rx="2.5" fill="#BFD1E5"/>
<rect x="25.326" width="5" height="5" rx="2.5" fill="#BFD1E5"/>
<rect x="50.326" y="25" width="5" height="5" rx="2.5" fill="#BFD1E5"/>
<rect x="25.326" y="25" width="5" height="5" rx="2.5" fill="#BFD1E5"/>
<rect x="50.326" y="50" width="5" height="5" rx="2.5" fill="#BFD1E5"/>
<rect x="0.825989" width="4" height="4" fill="#E3402A"/>
<rect x="4.82599" width="4" height="4" fill="#2AE369"/>
</svg>
