<svg width="134" height="122" viewBox="0 0 134 122" fill="none" xmlns="http://www.w3.org/2000/svg">
<rect x="100.326" y="101" width="5" height="5" rx="2.5" fill="#DF3C3C"/>
<rect x="75.326" y="101" width="5" height="5" rx="2.5" fill="#BFD1E5"/>
<rect x="50.326" y="101" width="5" height="5" rx="2.5" fill="#BFD1E5"/>
<rect x="50.326" y="76" width="5" height="5" rx="2.5" fill="#BFD1E5"/>
<rect x="75.326" y="76" width="5" height="5" rx="2.5" fill="#BFD1E5"/>
<rect x="75.326" y="51" width="5" height="5" rx="2.5" fill="#BFD1E5"/>
<rect x="100.326" y="51" width="5" height="5" rx="2.5" fill="#BFD1E5"/>
<rect x="25.326" y="51" width="5" height="5" rx="2.5" fill="#BFD1E5"/>
<rect x="0.826004" y="26" width="5" height="5" rx="2.5" fill="#BFD1E5"/>
<rect x="25.326" y="1" width="5" height="5" rx="2.5" fill="#BFD1E5"/>
<rect x="50.326" y="26" width="5" height="5" rx="2.5" fill="#BFD1E5"/>
<rect x="25.326" y="26" width="5" height="5" rx="2.5" fill="#BFD1E5"/>
<rect x="50.326" y="51" width="5" height="5" rx="2.5" fill="#BFD1E5"/>
<rect x="0.825989" y="1" width="4" height="4" fill="#E3402A"/>
<rect x="4.82599" y="1" width="4" height="4" fill="#2AE369"/>
<path d="M1 26.5L26 1L76.5 51L50.5 77L1 26.5Z" stroke="black"/>
<path d="M100.5 51L50.5 101H75L100.5 51Z" stroke="black"/>
</svg>
