<svg width="112" height="116" viewBox="0 0 112 116" fill="none" xmlns="http://www.w3.org/2000/svg">
<rect x="25.326" width="5" height="5" rx="2.5" fill="#BFD1E5"/>
<rect x="75.326" y="50" width="5" height="5" rx="2.5" fill="#BFD1E5"/>
<rect x="100.326" y="75" width="5" height="5" rx="2.5" fill="#BFD1E5"/>
<rect x="75.326" y="100" width="5" height="5" rx="2.5" fill="#BFD1E5"/>
<rect x="50.326" y="100" width="5" height="5" rx="2.5" fill="#BFD1E5"/>
<rect x="62.826" y="50" width="5" height="5" rx="2.5" fill="#DF3C3C"/>
<rect x="25.326" y="100" width="5" height="5" rx="2.5" fill="#BFD1E5"/>
<rect x="25.326" y="50" width="5" height="5" rx="2.5" fill="#BFD1E5"/>
<rect x="50.326" y="50" width="5" height="5" rx="2.5" fill="#BFD1E5"/>
<rect x="75.326" width="5" height="5" rx="2.5" fill="#BFD1E5"/>
<rect x="50.326" y="75" width="5" height="5" rx="2.5" fill="#BFD1E5"/>
<rect x="75.326" y="75" width="5" height="5" rx="2.5" fill="#BFD1E5"/>
<rect x="50.326" y="25" width="5" height="5" rx="2.5" fill="#BFD1E5"/>
<rect x="85.4211" y="35.5396" width="5" height="5" rx="2.5" fill="#BFD1E5"/>
<rect x="25.326" y="25" width="5" height="5" rx="2.5" fill="#DF3C3C"/>
<rect x="50.326" width="5" height="5" rx="2.5" fill="#BFD1E5"/>
<rect x="0.825989" width="4" height="4" fill="#E3402A"/>
<rect x="4.82599" width="4" height="4" fill="#2AE369"/>
<rect x="8.82599" width="4" height="4" fill="#3B57ED"/>
<path d="M101 75.5L25.5 0.5H75.5L101 75.5Z" stroke="black"/>
<path d="M26 101V50.5H49.5V101H26Z" stroke="black"/>
<path d="M76 50.5L51 75.5L76 100.5L100.5 75.5L76 50.5Z" stroke="black"/>
</svg>
