<svg width="81" height="81" viewBox="0 0 81 81" fill="none" xmlns="http://www.w3.org/2000/svg">
<rect x="26" y="26" width="5" height="5" rx="2.5" fill="#BFD1E5"/>
<rect x="26" y="51" width="5" height="5" rx="2.5" fill="#BFD1E5"/>
<rect x="26" y="76" width="5" height="5" rx="2.5" fill="#BFD1E5"/>
<rect x="1" y="51" width="5" height="5" rx="2.5" fill="#BFD1E5"/>
<rect x="51" y="51" width="5" height="5" rx="2.5" fill="#BFD1E5"/>
<rect x="76" y="51" width="5" height="5" rx="2.5" fill="#BFD1E5"/>
<rect x="51" y="76" width="5" height="5" rx="2.5" fill="#BFD1E5"/>
<rect x="51" y="1" width="5" height="5" rx="2.5" fill="#BFD1E5"/>
<rect x="76" y="76" width="5" height="5" rx="2.5" fill="#BFD1E5"/>
<rect x="51" y="26" width="5" height="5" rx="2.5" fill="#BFD1E5"/>
<rect x="76" y="26" width="5" height="5" rx="2.5" fill="#BFD1E5"/>
<rect x="1" y="1" width="4" height="4" fill="#2AE369"/>
<rect x="5" y="1" width="4" height="4" fill="#E3402A"/>
<path d="M1 51L51 1L76 26L26 76L1 51Z" stroke="black"/>
<path d="M76 76V26L26 76H76Z" stroke="black"/>
</svg>
