<svg width="82" height="81" viewBox="0 0 82 81" fill="none" xmlns="http://www.w3.org/2000/svg">
<rect x="2" y="26" width="5" height="5" rx="2.5" fill="#BFD1E5"/>
<rect x="2" y="51" width="5" height="5" rx="2.5" fill="#BFD1E5"/>
<rect x="27" y="51" width="5" height="5" rx="2.5" fill="#BFD1E5"/>
<rect x="52" y="51" width="5" height="5" rx="2.5" fill="#BFD1E5"/>
<rect x="27" y="76" width="5" height="5" rx="2.5" fill="#BFD1E5"/>
<rect x="27" y="1" width="5" height="5" rx="2.5" fill="#BFD1E5"/>
<rect x="52" y="76" width="5" height="5" rx="2.5" fill="#BFD1E5"/>
<rect x="27" y="26" width="5" height="5" rx="2.5" fill="#BFD1E5"/>
<rect x="52" y="26" width="5" height="5" rx="2.5" fill="#BFD1E5"/>
<rect x="2" y="1" width="4" height="4" fill="#2AE369"/>
<rect x="6" y="1" width="4" height="4" fill="#E3402A"/>
<rect x="10" y="1" width="4" height="4" fill="#3B57ED"/>
<path d="M52 26L27 1.5L2 26L27 51L52 26Z" stroke="black"/>
<path d="M27 76V51H52V76H27Z" stroke="black"/>
<path d="M27 51H2L27 76V51Z" stroke="black"/>
</svg>
