<svg width="80" height="80" viewBox="0 0 80 80" fill="none" xmlns="http://www.w3.org/2000/svg">
<g clip-path="url(#clip0_31_126)">
<rect width="5" height="5" rx="2.5" fill="#BFD1E5"/>
<rect y="50" width="5" height="5" rx="2.5" fill="#BFD1E5"/>
<rect x="25" y="50" width="5" height="5" rx="2.5" fill="#BFD1E5"/>
<rect x="75" y="50" width="5" height="5" rx="2.5" fill="#BFD1E5"/>
<rect x="25" y="75" width="5" height="5" rx="2.5" fill="#BFD1E5"/>
<rect x="50" y="75" width="5" height="5" rx="2.5" fill="#BFD1E5"/>
<rect x="75" y="75" width="5" height="5" rx="2.5" fill="#BFD1E5"/>
<rect x="25" y="25" width="5" height="5" rx="2.5" fill="#BFD1E5"/>
<rect x="50" y="25" width="5" height="5" rx="2.5" fill="#BFD1E5"/>
<rect x="75" y="25" width="5" height="5" rx="2.5" fill="#BFD1E5"/>
<rect x="50" width="5" height="5" rx="2.5" fill="#BFD1E5"/>
<rect x="4" width="4" height="4" fill="#E3402A"/>
<rect x="8" width="4" height="4" fill="#3B57ED"/>
<path d="M25 75V25H75V75H25Z" stroke="black"/>
<path d="M50.5 0.400085H0V50.5L50.5 0.400085Z" stroke="black"/>
</g>
<defs>
<clipPath id="clip0_31_126">
<rect width="80" height="80" fill="white"/>
</clipPath>
</defs>
</svg>
