<svg width="105" height="81" viewBox="0 0 105 81" fill="none" xmlns="http://www.w3.org/2000/svg">
<rect x="50" y="26" width="5" height="5" rx="2.5" fill="#BFD1E5"/>
<rect x="50" y="51" width="5" height="5" rx="2.5" fill="#BFD1E5"/>
<rect x="50" y="76" width="5" height="5" rx="2.5" fill="#BFD1E5"/>
<rect x="25" y="51" width="5" height="5" rx="2.5" fill="#BFD1E5"/>
<rect x="25" y="26" width="5" height="5" rx="2.5" fill="#BFD1E5"/>
<rect x="50" y="1" width="5" height="5" rx="2.5" fill="#BFD1E5"/>
<rect x="100" y="26" width="5" height="5" rx="2.5" fill="#BFD1E5"/>
<rect x="75" y="1" width="5" height="5" rx="2.5" fill="#BFD1E5"/>
<rect x="25" y="1" width="5" height="5" rx="2.5" fill="#BFD1E5"/>
<rect y="1" width="5" height="5" rx="2.5" fill="#BFD1E5"/>
<rect y="26" width="5" height="5" rx="2.5" fill="#BFD1E5"/>
<rect x="75" y="51" width="5" height="5" rx="2.5" fill="#BFD1E5"/>
<rect y="1" width="4" height="4" fill="#3B57ED"/>
<rect x="11" y="1" width="4" height="4" fill="#2AE369"/>
<path d="M0.5 1V26H50.5V1H0.5Z" stroke="black"/>
<path d="M75.5 1L25 51.5L50 76L100.5 26.5L75.5 1Z" stroke="black"/>
</svg>
