<svg width="80" height="81" viewBox="0 0 80 81" fill="none" xmlns="http://www.w3.org/2000/svg">
<rect x="25" y="26" width="5" height="5" rx="2.5" fill="#BFD1E5"/>
<rect x="25" y="51" width="5" height="5" rx="2.5" fill="#BFD1E5"/>
<rect x="50" y="51" width="5" height="5" rx="2.5" fill="#BFD1E5"/>
<rect x="50" y="76" width="5" height="5" rx="2.5" fill="#BFD1E5"/>
<rect x="25" y="76" width="5" height="5" rx="2.5" fill="#BFD1E5"/>
<rect y="76" width="5" height="5" rx="2.5" fill="#BFD1E5"/>
<rect y="51" width="5" height="5" rx="2.5" fill="#BFD1E5"/>
<rect y="26" width="5" height="5" rx="2.5" fill="#BFD1E5"/>
<rect x="75" y="51" width="5" height="5" rx="2.5" fill="#BFD1E5"/>
<rect x="50" y="1" width="5" height="5" rx="2.5" fill="#BFD1E5"/>
<rect x="75" y="1" width="5" height="5" rx="2.5" fill="#BFD1E5"/>
<rect y="1" width="4" height="4" fill="#3B57ED"/>
<rect x="4" y="1" width="4" height="4" fill="#E3402A"/>
<rect x="8" y="1" width="4" height="4" fill="#E3402A"/>
<path d="M50 76L0.5 26V76H50Z" stroke="black"/>
<path d="M25 51V26L50 51H25Z" stroke="black"/>
<path d="M50.5 51V1H75.5V51H50.5Z" stroke="black"/>
</svg>
