<svg width="105" height="80" viewBox="0 0 105 80" fill="none" xmlns="http://www.w3.org/2000/svg">
<rect x="25" y="25" width="5" height="5" rx="2.5" fill="#BFD1E5"/>
<rect x="25" width="5" height="5" rx="2.5" fill="#BFD1E5"/>
<rect x="25" y="50" width="5" height="5" rx="2.5" fill="#BFD1E5"/>
<rect x="75" y="50" width="5" height="5" rx="2.5" fill="#BFD1E5"/>
<rect y="50" width="5" height="5" rx="2.5" fill="#BFD1E5"/>
<rect x="50" y="25" width="5" height="5" rx="2.5" fill="#BFD1E5"/>
<rect x="50" y="50" width="5" height="5" rx="2.5" fill="#BFD1E5"/>
<rect width="5" height="5" rx="2.5" fill="#BFD1E5"/>
<rect x="75" y="25" width="5" height="5" rx="2.5" fill="#BFD1E5"/>
<rect x="100" y="50" width="5" height="5" rx="2.5" fill="#BFD1E5"/>
<rect x="75" y="75" width="5" height="5" rx="2.5" fill="#BFD1E5"/>
<rect width="4" height="4" fill="#3B57ED"/>
<rect x="4" width="4" height="4" fill="#2AE369"/>
<rect x="8" width="4" height="4" fill="#E3402A"/>
</svg>
