<svg width="106" height="80" viewBox="0 0 106 80" fill="none" xmlns="http://www.w3.org/2000/svg">
<rect x="26" y="25" width="5" height="5" rx="2.5" fill="#BFD1E5"/>
<rect x="26" width="5" height="5" rx="2.5" fill="#BFD1E5"/>
<rect x="26" y="50" width="5" height="5" rx="2.5" fill="#BFD1E5"/>
<rect x="76" y="50" width="5" height="5" rx="2.5" fill="#BFD1E5"/>
<rect x="1" y="50" width="5" height="5" rx="2.5" fill="#BFD1E5"/>
<rect x="51" y="25" width="5" height="5" rx="2.5" fill="#BFD1E5"/>
<rect x="51" y="50" width="5" height="5" rx="2.5" fill="#BFD1E5"/>
<rect x="1" width="5" height="5" rx="2.5" fill="#BFD1E5"/>
<rect x="76" y="25" width="5" height="5" rx="2.5" fill="#BFD1E5"/>
<rect x="101" y="50" width="5" height="5" rx="2.5" fill="#BFD1E5"/>
<rect x="76" y="75" width="5" height="5" rx="2.5" fill="#BFD1E5"/>
<rect x="1" width="4" height="4" fill="#3B57ED"/>
<rect x="5" width="4" height="4" fill="#2AE369"/>
<rect x="9" width="4" height="4" fill="#E3402A"/>
<path d="M1 50V0.5H26V50H1Z" stroke="black"/>
<path d="M51 50L76 25L101 50L76 75L51 50Z" stroke="black"/>
<path d="M76 25H26L50.5 50L76 25Z" stroke="black"/>
</svg>
