<svg width="81" height="81" viewBox="0 0 81 81" fill="none" xmlns="http://www.w3.org/2000/svg">
<rect x="51" y="26" width="5" height="5" rx="2.5" fill="#BFD1E5"/>
<rect x="76" y="26" width="5" height="5" rx="2.5" fill="#BFD1E5"/>
<rect x="51" y="51" width="5" height="5" rx="2.5" fill="#BFD1E5"/>
<rect x="51" y="76" width="5" height="5" rx="2.5" fill="#BFD1E5"/>
<rect x="26" y="51" width="5" height="5" rx="2.5" fill="#BFD1E5"/>
<rect x="51" y="1" width="5" height="5" rx="2.5" fill="#BFD1E5"/>
<rect x="26" y="26" width="5" height="5" rx="2.5" fill="#BFD1E5"/>
<rect x="76" y="1" width="5" height="5" rx="2.5" fill="#BFD1E5"/>
<rect x="26" y="1" width="5" height="5" rx="2.5" fill="#BFD1E5"/>
<rect x="1" y="26" width="5" height="5" rx="2.5" fill="#BFD1E5"/>
<rect x="76" y="51" width="5" height="5" rx="2.5" fill="#BFD1E5"/>
<rect x="76" y="76" width="5" height="5" rx="2.5" fill="#BFD1E5"/>
<rect x="8" y="1" width="4" height="4" fill="#3B57ED"/>
<rect x="12" y="1" width="4" height="4" fill="#2AE369"/>
<path d="M26 1.5L1.5 26.5L26 51.5L51 26.5L26 1.5Z" stroke="black"/>
<path d="M51 76V1.5H76V76H51Z" stroke="black"/>
</svg>
