<svg width="105" height="80" viewBox="0 0 105 80" fill="none" xmlns="http://www.w3.org/2000/svg">
<g clip-path="url(#clip0_33_166)">
<rect x="50" y="25" width="5" height="5" rx="2.5" fill="#BFD1E5"/>
<rect x="75" y="25" width="5" height="5" rx="2.5" fill="#BFD1E5"/>
<rect x="100" width="5" height="5" rx="2.5" fill="#BFD1E5"/>
<rect x="100" y="25" width="5" height="5" rx="2.5" fill="#BFD1E5"/>
<rect x="25" y="50" width="5" height="5" rx="2.5" fill="#BFD1E5"/>
<rect x="50" width="5" height="5" rx="2.5" fill="#BFD1E5"/>
<rect x="100" y="50" width="5" height="5" rx="2.5" fill="#BFD1E5"/>
<rect x="75" y="75" width="5" height="5" rx="2.5" fill="#BFD1E5"/>
<rect x="25" y="25" width="5" height="5" rx="2.5" fill="#BFD1E5"/>
<rect x="75" width="5" height="5" rx="2.5" fill="#BFD1E5"/>
<rect x="25" width="5" height="5" rx="2.5" fill="#BFD1E5"/>
<rect y="25" width="5" height="5" rx="2.5" fill="#BFD1E5"/>
<rect x="75" y="50" width="5" height="5" rx="2.5" fill="#BFD1E5"/>
<rect x="7" width="4" height="4" fill="#3B57ED"/>
<rect x="3" width="4" height="4" fill="#E3402A"/>
<rect x="11" width="4" height="4" fill="#2AE369"/>
<path d="M74.5 75.5V-1H50L74.5 75.5Z" stroke="black"/>
<path d="M75 50V0H100.5V50H75Z" stroke="black"/>
<path d="M50.5 25L25.5 0.5L0 25L25.5 50.5L50.5 25Z" stroke="black"/>
</g>
<defs>
<clipPath id="clip0_33_166">
<rect width="105" height="80" fill="white"/>
</clipPath>
</defs>
</svg>
