<svg width="131" height="56" viewBox="0 0 131 56" fill="none" xmlns="http://www.w3.org/2000/svg">
<rect x="51" y="26" width="5" height="5" rx="2.5" fill="#BFD1E5"/>
<rect x="51" y="1" width="5" height="5" rx="2.5" fill="#BFD1E5"/>
<rect x="26" y="26" width="5" height="5" rx="2.5" fill="#BFD1E5"/>
<rect x="1" y="26" width="5" height="5" rx="2.5" fill="#BFD1E5"/>
<rect x="26" y="1" width="5" height="5" rx="2.5" fill="#BFD1E5"/>
<rect x="26" y="51" width="5" height="5" rx="2.5" fill="#BFD1E5"/>
<rect x="76" y="1" width="5" height="5" rx="2.5" fill="#BFD1E5"/>
<rect x="76" y="26" width="5" height="5" rx="2.5" fill="#BFD1E5"/>
<rect x="101" y="51" width="5" height="5" rx="2.5" fill="#BFD1E5"/>
<rect x="101" y="1" width="5" height="5" rx="2.5" fill="#BFD1E5"/>
<rect x="101" y="26" width="5" height="5" rx="2.5" fill="#BFD1E5"/>
<rect x="126" y="26" width="5" height="5" rx="2.5" fill="#BFD1E5"/>
<rect x="1" y="1" width="4" height="4" fill="#E3402A"/>
<rect x="5" y="1" width="4" height="4" fill="#E3402A"/>
<rect x="9" y="1" width="4" height="4" fill="#3B57ED"/>
<path d="M26 26H1.5L26 51.5V26Z" stroke="black"/>
<path d="M101.5 26V51L126 26H101.5Z" stroke="black"/>
<path d="M101 26H26V1H101V26Z" stroke="black"/>
</svg>
