<svg width="131" height="56" viewBox="0 0 131 56" fill="none" xmlns="http://www.w3.org/2000/svg">
<rect x="51" y="26" width="5" height="5" rx="2.5" fill="#BFD1E5"/>
<rect x="51" y="1" width="5" height="5" rx="2.5" fill="#BFD1E5"/>
<rect x="26" y="26" width="5" height="5" rx="2.5" fill="#BFD1E5"/>
<rect x="1" y="26" width="5" height="5" rx="2.5" fill="#BFD1E5"/>
<rect x="26" y="1" width="5" height="5" rx="2.5" fill="#BFD1E5"/>
<rect x="26" y="51" width="5" height="5" rx="2.5" fill="#BFD1E5"/>
<rect x="76" y="1" width="5" height="5" rx="2.5" fill="#BFD1E5"/>
<rect x="76" y="26" width="5" height="5" rx="2.5" fill="#BFD1E5"/>
<rect x="101" y="51" width="5" height="5" rx="2.5" fill="#BFD1E5"/>
<rect x="101" y="1" width="5" height="5" rx="2.5" fill="#BFD1E5"/>
<rect x="101" y="26" width="5" height="5" rx="2.5" fill="#BFD1E5"/>
<rect x="126" y="26" width="5" height="5" rx="2.5" fill="#BFD1E5"/>
<rect x="1" y="1" width="4" height="4" fill="#2AE369"/>
<rect x="5" y="1" width="4" height="4" fill="#2AE369"/>
<rect x="9" y="1" width="4" height="4" fill="#3B57ED"/>
<path d="M26 1.5L1 26L26 51L51 26L26 1.5Z" stroke="black"/>
<path d="M51.5 26V1.5H76.5V26H51.5Z" stroke="black"/>
<path d="M101 1L76.5 26L101 51L126 26L101 1Z" stroke="black"/>
</svg>
