<svg width="106" height="106" viewBox="0 0 106 106" fill="none" xmlns="http://www.w3.org/2000/svg">
<rect x="1" y="26" width="5" height="5" rx="2.5" fill="#BFD1E5"/>
<rect x="1" y="1" width="5" height="5" rx="2.5" fill="#BFD1E5"/>
<rect x="51" y="26" width="5" height="5" rx="2.5" fill="#BFD1E5"/>
<rect x="1" y="51" width="5" height="5" rx="2.5" fill="#BFD1E5"/>
<rect x="26" y="76" width="5" height="5" rx="2.5" fill="#BFD1E5"/>
<rect x="26" y="1" width="5" height="5" rx="2.5" fill="#BFD1E5"/>
<rect x="26" y="26" width="5" height="5" rx="2.5" fill="#BFD1E5"/>
<rect x="51" y="51" width="5" height="5" rx="2.5" fill="#BFD1E5"/>
<rect x="51" y="76" width="5" height="5" rx="2.5" fill="#BFD1E5"/>
<rect x="76" y="51" width="5" height="5" rx="2.5" fill="#BFD1E5"/>
<rect x="26" y="51" width="5" height="5" rx="2.5" fill="#BFD1E5"/>
<rect x="51" y="101" width="5" height="5" rx="2.5" fill="#BFD1E5"/>
<rect x="76" y="76" width="5" height="5" rx="2.5" fill="#BFD1E5"/>
<rect x="101" y="51" width="5" height="5" rx="2.5" fill="#BFD1E5"/>
<rect x="51" y="1" width="5" height="5" rx="2.5" fill="#BFD1E5"/>
<rect x="1" y="1" width="4" height="4" fill="#2AE369"/>
<rect x="5" y="1" width="4" height="4" fill="#E3402A"/>
<path d="M26.5 1.5L1.5 26.5V1.5H26.5Z" stroke="black"/>
<path d="M51.5 1L1.5 51L51.5 101.5L101 51L51.5 1Z" stroke="black"/>
</svg>
