<svg width="100" height="117" viewBox="0 0 100 117" fill="none" xmlns="http://www.w3.org/2000/svg">
<rect x="26" y="101" width="5" height="5" rx="2.5" fill="#DF3C3C"/>
<rect x="76" y="26" width="5" height="5" rx="2.5" fill="#DF3C3C"/>
<rect x="1" y="101" width="5" height="5" rx="2.5" fill="#BFD1E5"/>
<rect x="51" y="101" width="5" height="5" rx="2.5" fill="#BFD1E5"/>
<rect x="76" y="101" width="5" height="5" rx="2.5" fill="#BFD1E5"/>
<rect x="76" y="51" width="5" height="5" rx="2.5" fill="#BFD1E5"/>
<rect x="51" y="51" width="5" height="5" rx="2.5" fill="#BFD1E5"/>
<rect x="51" y="76" width="5" height="5" rx="2.5" fill="#BFD1E5"/>
<rect x="76" y="76" width="5" height="5" rx="2.5" fill="#BFD1E5"/>
<rect x="51" y="26" width="5" height="5" rx="2.5" fill="#BFD1E5"/>
<rect x="1" y="1" width="5" height="5" rx="2.5" fill="#BFD1E5"/>
<rect x="1" y="76" width="5" height="5" rx="2.5" fill="#BFD1E5"/>
<rect x="1" y="26" width="5" height="5" rx="2.5" fill="#BFD1E5"/>
<rect x="26" y="51" width="5" height="5" rx="2.5" fill="#BFD1E5"/>
<rect x="0.5" y="51" width="5" height="5" rx="2.5" fill="#BFD1E5"/>
<rect x="1" y="1" width="4" height="4" fill="#E3402A"/>
<rect x="5" y="1" width="4" height="4" fill="#3B57ED"/>
<path d="M51.5 51.5V101.5H76.5V51.5H51.5Z" stroke="black"/>
<path d="M51.5 26.5L1 101.5V1.5L51.5 26.5Z" stroke="black"/>
</svg>
