<svg width="98" height="115" viewBox="0 0 98 115" fill="none" xmlns="http://www.w3.org/2000/svg">
<rect x="26" y="99.9999" width="5" height="5" rx="2.5" fill="#DF3C3C"/>
<rect x="76" y="25" width="5" height="5" rx="2.5" fill="#DF3C3C"/>
<rect x="1" y="100" width="5" height="5" rx="2.5" fill="#BFD1E5"/>
<rect x="51" y="100" width="5" height="5" rx="2.5" fill="#BFD1E5"/>
<rect x="76" y="100" width="5" height="5" rx="2.5" fill="#BFD1E5"/>
<rect x="76" y="50" width="5" height="5" rx="2.5" fill="#BFD1E5"/>
<rect x="51" y="50" width="5" height="5" rx="2.5" fill="#BFD1E5"/>
<rect x="51" y="75" width="5" height="5" rx="2.5" fill="#BFD1E5"/>
<rect x="76" y="75" width="5" height="5" rx="2.5" fill="#BFD1E5"/>
<rect x="51" y="25" width="5" height="5" rx="2.5" fill="#BFD1E5"/>
<rect x="1" width="5" height="5" rx="2.5" fill="#BFD1E5"/>
<rect x="1" y="75" width="5" height="5" rx="2.5" fill="#BFD1E5"/>
<rect x="1" y="25" width="5" height="5" rx="2.5" fill="#BFD1E5"/>
<rect x="26" y="50" width="5" height="5" rx="2.5" fill="#BFD1E5"/>
<rect x="0.5" y="50" width="5" height="5" rx="2.5" fill="#BFD1E5"/>
<rect x="1" width="4" height="4" fill="#E3402A"/>
<rect x="5" width="4" height="4" fill="#3B57ED"/>
</svg>
