<svg width="147" height="136" viewBox="0 0 147 136" fill="none" xmlns="http://www.w3.org/2000/svg">
<rect x="25" y="25" width="5" height="5" rx="2.5" fill="#BFD1E5"/>
<rect x="50" y="25" width="5" height="5" rx="2.5" fill="#BFD1E5"/>
<rect x="86.2983" y="35.9901" width="5" height="5" rx="2.5" fill="#BFD1E5"/>
<rect x="112.408" y="75" width="5" height="5" rx="2.5" fill="#BFD1E5"/>
<rect x="50" y="113.827" width="5" height="5" rx="2.5" fill="#BFD1E5"/>
<rect x="25" y="75" width="5" height="5" rx="2.5" fill="#BFD1E5"/>
<rect x="75" y="75" width="5" height="5" rx="2.5" fill="#BFD1E5"/>
<rect x="75" y="86" width="5" height="5" rx="2.5" fill="#BFD1E5"/>
<rect x="50" y="86" width="5" height="5" rx="2.5" fill="#BFD1E5"/>
<rect x="50" y="75" width="5" height="5" rx="2.5" fill="#BFD1E5"/>
<rect x="109.908" y="25" width="5" height="5" rx="2.5" fill="#BFD1E5"/>
<rect x="50" y="50" width="5" height="5" rx="2.5" fill="#BFD1E5"/>
<rect x="125" y="25" width="5" height="5" rx="2.5" fill="#BFD1E5"/>
<rect x="125" y="75" width="5" height="5" rx="2.5" fill="#BFD1E5"/>
<rect x="25" y="50" width="5" height="5" rx="2.5" fill="#BFD1E5"/>
<rect x="75" y="25" width="5" height="5" rx="2.5" fill="#DF3C3C"/>
<rect x="25" y="113.827" width="5" height="5" rx="2.5" fill="#DF3C3C"/>
<rect width="4" height="4" fill="#E3402A"/>
<rect x="4" width="4" height="4" fill="#3B57ED"/>
<rect x="8" width="4" height="4" fill="#2AE369"/>
</svg>
