<svg width="147" height="122" viewBox="0 0 147 122" fill="none" xmlns="http://www.w3.org/2000/svg">
<rect width="4" height="4" fill="#3B57ED"/>
<rect x="4" width="4" height="4" fill="#3B57ED"/>
<rect x="8" width="4" height="4" fill="#2AE369"/>
<rect x="25" y="25" width="5" height="5" rx="2.5" fill="#BFD1E5"/>
<rect x="61" y="88" width="5" height="5" rx="2.5" fill="#BFD1E5"/>
<rect x="12" y="75" width="5" height="5" rx="2.5" fill="#BFD1E5"/>
<rect x="76" y="38" width="5" height="5" rx="2.5" fill="#BFD1E5"/>
<rect x="111" y="50" width="5" height="5" rx="2.5" fill="#BFD1E5"/>
<rect x="87" y="50" width="5" height="5" rx="2.5" fill="#BFD1E5"/>
<rect x="87" y="75" width="5" height="5" rx="2.5" fill="#BFD1E5"/>
<rect x="115" y="75" width="5" height="5" rx="2.5" fill="#BFD1E5"/>
<rect x="50" y="75" width="5" height="5" rx="2.5" fill="#BFD1E5"/>
<rect x="50" y="50" width="5" height="5" rx="2.5" fill="#BFD1E5"/>
<rect x="25" y="50" width="5" height="5" rx="2.5" fill="#BFD1E5"/>
<rect x="35" y="61" width="5" height="5" rx="2.5" fill="#BFD1E5"/>
<rect x="100" y="50" width="5" height="5" rx="2.5" fill="#BFD1E5"/>
<rect x="100" y="100" width="5" height="5" rx="2.5" fill="#BFD1E5"/>
<rect x="87" y="100" width="5" height="5" rx="2.5" fill="#BFD1E5"/>
<rect x="115" y="100" width="5" height="5" rx="2.5" fill="#BFD1E5"/>
<rect x="12" y="101" width="5" height="5" rx="2.5" fill="#BFD1E5"/>
<rect x="61" y="101" width="5" height="5" rx="2.5" fill="#BFD1E5"/>
<rect x="12" y="88" width="5" height="5" rx="2.5" fill="#BFD1E5"/>
<rect x="75" y="75" width="5" height="5" rx="2.5" fill="#DF3C3C"/>
<path d="M76 38L26 25L12 75L61.5 88L76 38Z" stroke="black"/>
<path d="M115 100H88V50H115V100Z" stroke="black"/>
</svg>
