<svg width="147" height="123" viewBox="0 0 147 123" fill="none" xmlns="http://www.w3.org/2000/svg">
<rect y="1" width="4" height="4" fill="#E3402A"/>
<rect x="4" y="1" width="4" height="4" fill="#3B57ED"/>
<rect x="8" y="1" width="4" height="4" fill="#2AE369"/>
<rect x="24" y="38" width="5" height="5" rx="2.5" fill="#BFD1E5"/>
<rect x="50" y="51" width="5" height="5" rx="2.5" fill="#DF3C3C"/>
<rect x="50" y="101" width="5" height="5" rx="2.5" fill="#DF3C3C"/>
<rect x="125" y="63" width="5" height="5" rx="2.5" fill="#DF3C3C"/>
<rect x="50" y="26" width="5" height="5" rx="2.5" fill="#BFD1E5"/>
<rect x="100" y="1" width="5" height="5" rx="2.5" fill="#BFD1E5"/>
<rect x="125" y="51" width="5" height="5" rx="2.5" fill="#BFD1E5"/>
<rect x="76" y="76" width="5" height="5" rx="2.5" fill="#BFD1E5"/>
<rect x="50" y="88" width="5" height="5" rx="2.5" fill="#BFD1E5"/>
<rect x="100" y="62" width="5" height="5" rx="2.5" fill="#BFD1E5"/>
<rect y="101" width="5" height="5" rx="2.5" fill="#BFD1E5"/>
<rect x="61" y="101" width="5" height="5" rx="2.5" fill="#BFD1E5"/>
<rect x="61" y="76" width="5" height="5" rx="2.5" fill="#BFD1E5"/>
<rect x="125" y="101" width="5" height="5" rx="2.5" fill="#BFD1E5"/>
<rect x="125" y="76" width="5" height="5" rx="2.5" fill="#BFD1E5"/>
<rect x="100" y="76" width="5" height="5" rx="2.5" fill="#BFD1E5"/>
<rect x="75" y="51" width="5" height="5" rx="2.5" fill="#BFD1E5"/>
<rect x="100" y="26" width="5" height="5" rx="2.5" fill="#BFD1E5"/>
<rect x="75" y="26" width="5" height="5" rx="2.5" fill="#BFD1E5"/>
<rect x="25" y="86" width="5" height="5" rx="2.5" fill="#BFD1E5"/>
<rect x="25" y="61" width="5" height="5" rx="2.5" fill="#BFD1E5"/>
<path d="M125 76.5H61V101.5H125V76.5Z" stroke="black"/>
<path d="M100 1.5L125 51L76.5 76.5L51 25.5L100 1.5Z" stroke="black"/>
<path d="M1 103.5L25.5 40L53.5 91.5L1 103.5Z" stroke="black"/>
</svg>
