<svg width="105" height="105" viewBox="0 0 105 105" fill="none" xmlns="http://www.w3.org/2000/svg">
<rect x="50" width="5" height="5" rx="2.5" fill="#BFD1E5"/>
<rect x="50" y="25" width="5" height="5" rx="2.5" fill="#BFD1E5"/>
<rect x="100" width="5" height="5" rx="2.5" fill="#BFD1E5"/>
<rect x="50" y="50" width="5" height="5" rx="2.5" fill="#BFD1E5"/>
<rect x="100" y="50" width="5" height="5" rx="2.5" fill="#BFD1E5"/>
<rect x="50" y="75" width="5" height="5" rx="2.5" fill="#BFD1E5"/>
<rect x="50" y="100" width="5" height="5" rx="2.5" fill="#BFD1E5"/>
<rect x="25" width="5" height="5" rx="2.5" fill="#BFD1E5"/>
<rect width="5" height="5" rx="2.5" fill="#BFD1E5"/>
<rect x="25" y="25" width="5" height="5" rx="2.5" fill="#BFD1E5"/>
<rect x="75" y="25" width="5" height="5" rx="2.5" fill="#BFD1E5"/>
<rect x="75" width="5" height="5" rx="2.5" fill="#BFD1E5"/>
<rect y="25" width="5" height="5" rx="2.5" fill="#BFD1E5"/>
<rect x="25" y="50" width="5" height="5" rx="2.5" fill="#BFD1E5"/>
<rect x="75" y="50" width="5" height="5" rx="2.5" fill="#BFD1E5"/>
<rect y="50" width="5" height="5" rx="2.5" fill="#BFD1E5"/>
<rect x="25" y="75" width="5" height="5" rx="2.5" fill="#BFD1E5"/>
<rect x="75" y="75" width="5" height="5" rx="2.5" fill="#BFD1E5"/>
<rect y="75" width="5" height="5" rx="2.5" fill="#BFD1E5"/>
<rect y="100" width="5" height="5" rx="2.5" fill="#BFD1E5"/>
<rect x="7" width="4" height="4" fill="#2AE369"/>
<rect x="11" width="4" height="4" fill="#E3402A"/>
<path d="M100.5 0.5L0.5 100.5V0.5H100.5Z" stroke="black"/>
<path d="M50.5 100.5L25.5 75.5L75 25.5L100.5 50.5L50.5 100.5Z" stroke="black"/>
</svg>
