<svg width="105" height="105" viewBox="0 0 105 105" fill="none" xmlns="http://www.w3.org/2000/svg">
<g clip-path="url(#clip0_41_5)">
<rect x="62" width="5" height="5" rx="2.5" fill="#BFD1E5"/>
<rect x="50" y="50" width="5" height="5" rx="2.5" fill="#BFD1E5"/>
<rect x="100" y="50" width="5" height="5" rx="2.5" fill="#BFD1E5"/>
<rect x="50" y="75" width="5" height="5" rx="2.5" fill="#BFD1E5"/>
<rect x="50" y="100" width="5" height="5" rx="2.5" fill="#BFD1E5"/>
<rect x="12" y="25" width="5" height="5" rx="2.5" fill="#BFD1E5"/>
<rect x="50" y="25" width="5" height="5" rx="2.5" fill="#BFD1E5"/>
<rect x="75" y="50" width="5" height="5" rx="2.5" fill="#BFD1E5"/>
<rect x="75" y="25" width="5" height="5" rx="2.5" fill="#BFD1E5"/>
<rect x="25" y="50" width="5" height="5" rx="2.5" fill="#BFD1E5"/>
<rect x="75" y="75" width="5" height="5" rx="2.5" fill="#BFD1E5"/>
<rect width="4" height="4" fill="#2AE369"/>
<rect x="4" width="4" height="4" fill="#E3402A"/>
<path d="M50 50V100L100 50H50Z" stroke="black"/>
<path d="M25 50L11.5 25L62 0L75 25L25 50Z" stroke="black"/>
</g>
<defs>
<clipPath id="clip0_41_5">
<rect width="105" height="105" fill="white"/>
</clipPath>
</defs>
</svg>
