<svg width="121" height="117" viewBox="0 0 121 117" fill="none" xmlns="http://www.w3.org/2000/svg">
<rect x="52" y="50" width="5" height="5" rx="2.5" fill="#BFD1E5"/>
<rect x="77" y="50" width="5" height="5" rx="2.5" fill="#BFD1E5"/>
<rect x="52" y="75" width="5" height="5" rx="2.5" fill="#BFD1E5"/>
<rect x="102" y="50" width="5" height="5" rx="2.5" fill="#BFD1E5"/>
<rect x="52" y="25" width="5" height="5" rx="2.5" fill="#BFD1E5"/>
<rect x="77" width="5" height="5" rx="2.5" fill="#BFD1E5"/>
<rect x="77" y="25" width="5" height="5" rx="2.5" fill="#BFD1E5"/>
<rect x="27" y="50" width="5" height="5" rx="2.5" fill="#BFD1E5"/>
<rect x="2" y="25" width="5" height="5" rx="2.5" fill="#BFD1E5"/>
<rect x="52" width="5" height="5" rx="2.5" fill="#BFD1E5"/>
<rect x="2" width="4" height="4" fill="#E3402A"/>
<rect x="6" width="4" height="4" fill="#3B57ED"/>
<path d="M52.5 25V1H77.5V25H52.5Z" stroke="black"/>
<path d="M102.5 50.5L2 25L52 76L102.5 50.5Z" stroke="black"/>
</svg>
