<svg width="120" height="117" viewBox="0 0 120 117" fill="none" xmlns="http://www.w3.org/2000/svg">
<rect x="51" y="50" width="5" height="5" rx="2.5" fill="#BFD1E5"/>
<rect x="76" y="50" width="5" height="5" rx="2.5" fill="#BFD1E5"/>
<rect x="51" y="75" width="5" height="5" rx="2.5" fill="#BFD1E5"/>
<rect x="51" y="100" width="5" height="5" rx="2.5" fill="#BFD1E5"/>
<rect x="51" y="25" width="5" height="5" rx="2.5" fill="#BFD1E5"/>
<rect x="101" y="50" width="5" height="5" rx="2.5" fill="#BFD1E5"/>
<rect x="76" y="75" width="5" height="5" rx="2.5" fill="#BFD1E5"/>
<rect x="76" y="100" width="5" height="5" rx="2.5" fill="#BFD1E5"/>
<rect x="101" width="5" height="5" rx="2.5" fill="#BFD1E5"/>
<rect x="76" y="25" width="5" height="5" rx="2.5" fill="#BFD1E5"/>
<rect x="26" y="50" width="5" height="5" rx="2.5" fill="#BFD1E5"/>
<rect x="1" y="25" width="5" height="5" rx="2.5" fill="#BFD1E5"/>
<rect x="1" width="4" height="4" fill="#E3402A"/>
<rect x="5" width="4" height="4" fill="#E3402A"/>
<path d="M51.5 100.5L1.5 24.5L101.5 1L51.5 100.5Z" stroke="black"/>
<path d="M75.5 50.5V100.5L101.5 50.5H75.5Z" stroke="black"/>
</svg>
