<svg width="12" height="16" viewBox="0 0 12 16" fill="none" xmlns="http://www.w3.org/2000/svg">
<path d="M4.58749 13.4578V13.3418H7.42493V13.4578C7.42493 14.1481 6.86528 14.7078 6.17493 14.7078H5.83749C5.14713 14.7078 4.58749 14.1481 4.58749 13.4578Z" stroke="#BFD1E5" stroke-width="1.5"/>
<path d="M10.251 5.52829C10.251 6.63201 9.81483 7.54416 9.26537 8.38838C9.08101 8.67164 8.90035 8.92395 8.71844 9.17801C8.61897 9.31693 8.51912 9.45638 8.41809 9.6017C8.15611 9.97851 7.8866 10.3948 7.73194 10.825H4.28197C4.12899 10.3919 3.86224 9.96662 3.59937 9.57824C3.48704 9.41228 3.37715 9.25534 3.26773 9.09904C3.09454 8.85168 2.92249 8.60595 2.7437 8.32871C2.18293 7.45913 1.74905 6.55641 1.74905 5.52829C1.74905 3.17151 3.85256 1.29222 6.01992 1.29222C8.19583 1.29222 10.251 3.02004 10.251 5.52829Z" stroke="#BFD1E5" stroke-width="1.5"/>
<path d="M6.78089 11.1707L7.23982 8.0117C7.2624 7.85627 7.21063 7.69927 7.10004 7.58775L6.94559 7.43199C6.79138 7.27649 6.55391 7.23943 6.35966 7.34057L6.22401 7.4112C6.08035 7.48599 5.90936 7.48657 5.7652 7.41274L5.62405 7.34046C5.42717 7.23963 5.18743 7.28015 5.03463 7.44008L4.89714 7.58398C4.78836 7.69784 4.73956 7.85629 4.76546 8.01162L5.29219 11.1707" stroke="#BFD1E5"/>
</svg>
