<svg width="10" height="11" viewBox="0 0 10 11" fill="none" xmlns="http://www.w3.org/2000/svg">
<path d="M6.19598 9.79948L6.19598 7.46283C6.19598 7.18729 5.97306 6.96369 5.69752 6.96284L4.22886 6.95831C3.95212 6.95745 3.72732 7.18156 3.72732 7.4583L3.72732 9.82023C3.72732 10.0965 3.5032 10.3205 3.2269 10.3202L1.55157 10.3188C1.27559 10.3186 1.05199 10.0948 1.05199 9.81882L1.05199 5.56717C1.05199 5.54042 1.06271 5.51479 1.08174 5.496L5.03763 1.59163L8.94208 5.49608C8.96083 5.51483 8.97137 5.54027 8.97137 5.56679L8.97137 9.81423C8.97137 10.092 8.74497 10.3165 8.46721 10.3142L6.69182 10.2995C6.41731 10.2972 6.19598 10.074 6.19598 9.79948Z" fill="#BFD1E5"/>
<path d="M5.09932 2.04155L8.70422 5.64645C8.89948 5.84171 9.21607 5.84171 9.41133 5.64645L9.67507 5.3827C9.87033 5.18744 9.87033 4.87086 9.67507 4.6756L5.73626 0.736794C5.34573 0.34627 4.71257 0.34627 4.32204 0.736794L0.383242 4.6756C0.18798 4.87086 0.18798 5.18744 0.383242 5.3827L0.646446 5.64591C0.841708 5.84117 1.15829 5.84117 1.35355 5.64591L4.9579 2.04155C4.99695 2.0025 5.06027 2.0025 5.09932 2.04155Z" fill="#BFD1E5"/>
</svg>
