<svg width="14" height="12" viewBox="0 0 14 12" fill="none" xmlns="http://www.w3.org/2000/svg">
<path d="M4.95929 2.46549C4.7056 2.02608 4.13651 1.86983 3.75086 2.19954C3.15498 2.70897 2.68383 3.35438 2.38054 4.08658C1.95933 5.10347 1.88544 6.23093 2.17031 7.29409C2.45518 8.35726 3.08291 9.29672 3.95613 9.96677C4.82935 10.6368 5.89927 11 6.99994 11C8.10061 11 9.17052 10.6368 10.0437 9.96677C10.917 9.29672 11.5447 8.35726 11.8296 7.2941C12.1144 6.23093 12.0405 5.10347 11.6193 4.08658C11.316 3.35438 10.8449 2.70897 10.249 2.19954C9.86337 1.86983 9.29428 2.02608 9.04059 2.46549V2.46549C8.7869 2.9049 8.95114 3.45986 9.29948 3.82878C9.56192 4.10675 9.77356 4.43185 9.9218 4.78973C10.1882 5.43293 10.235 6.14607 10.0548 6.81854C9.87459 7.49102 9.47754 8.08524 8.92521 8.50906C8.37288 8.93288 7.69614 9.1626 6.99994 9.1626C6.30374 9.1626 5.627 8.93288 5.07467 8.50906C4.52234 8.08524 4.12529 7.49102 3.9451 6.81854C3.76491 6.14607 3.81165 5.43293 4.07808 4.78972C4.22632 4.43185 4.43795 4.10675 4.7004 3.82878C5.04873 3.45986 5.21298 2.9049 4.95929 2.46549V2.46549Z" fill="#BFD1E5"/>
<path d="M5.57124 5.10243L5.2084 1.934L1.84536 2.16284" stroke="#BFD1E5" stroke-width="1.8" stroke-linecap="round" stroke-linejoin="round"/>
</svg>
