<svg width="101" height="21" viewBox="0 0 101 21" fill="none" xmlns="http://www.w3.org/2000/svg">
<g filter="url(#filter0_d_212_31)">
<path d="M9.375 18.2C7.94167 18.2 6.55833 18.025 5.225 17.675C4.58231 17.496 3.99719 17.2932 3.46966 17.0666C2.58041 16.6846 2.28637 15.6318 2.68001 14.7476V14.7476C3.17749 13.6302 4.55978 13.2203 5.70303 13.6552C5.90526 13.7321 6.11258 13.8054 6.325 13.875C7.35833 14.1917 8.38333 14.35 9.4 14.35C10.0833 14.35 10.6333 14.2917 11.05 14.175C11.4667 14.0417 11.7667 13.875 11.95 13.675C12.15 13.4583 12.25 13.2083 12.25 12.925C12.25 12.525 12.0667 12.2083 11.7 11.975C11.3333 11.7417 10.8583 11.55 10.275 11.4C9.69167 11.25 9.04167 11.1 8.325 10.95C7.625 10.8 6.91667 10.6083 6.2 10.375C5.5 10.1417 4.85833 9.84167 4.275 9.475C3.69167 9.09167 3.21667 8.6 2.85 8C2.48333 7.38333 2.3 6.60833 2.3 5.675C2.3 4.625 2.58333 3.675 3.15 2.825C3.73333 1.975 4.6 1.29167 5.75 0.775C6.9 0.258334 8.33333 0 10.05 0C11.2 0 12.325 0.133334 13.425 0.400001C13.9074 0.50801 14.3666 0.639351 14.8023 0.794024C15.7509 1.1307 16.1114 2.22038 15.7257 3.15005V3.15005C15.2705 4.24685 13.9706 4.68406 12.838 4.32714C12.6917 4.28104 12.5457 4.23867 12.4 4.2C11.5833 3.96667 10.7917 3.85 10.025 3.85C9.34167 3.85 8.79167 3.925 8.375 4.075C7.95833 4.20833 7.65833 4.39167 7.475 4.625C7.29167 4.85833 7.2 5.125 7.2 5.425C7.2 5.80833 7.375 6.11667 7.725 6.35C8.09167 6.56667 8.56667 6.75 9.15 6.9C9.75 7.03333 10.4 7.175 11.1 7.325C11.8167 7.475 12.525 7.66667 13.225 7.9C13.9417 8.11667 14.5917 8.41667 15.175 8.8C15.7583 9.16667 16.225 9.65833 16.575 10.275C16.9417 10.875 17.125 11.6333 17.125 12.55C17.125 13.5667 16.8333 14.5083 16.25 15.375C15.6833 16.225 14.825 16.9083 13.675 17.425C12.5417 17.9417 11.1083 18.2 9.375 18.2Z" fill="#BAC6D8"/>
<path d="M31.1115 2.825C31.1115 1.45809 32.2196 0.35 33.5865 0.35V0.35C34.9534 0.35 36.0615 1.45809 36.0615 2.825V15.375C36.0615 16.7419 34.9534 17.85 33.5865 17.85V17.85C32.2196 17.85 31.1115 16.7419 31.1115 15.375V2.825ZM24.3615 15.375C24.3615 16.7419 23.2534 17.85 21.8865 17.85V17.85C20.5196 17.85 19.4115 16.7419 19.4115 15.375V2.825C19.4115 1.45809 20.5196 0.35 21.8865 0.35V0.35C23.2534 0.35 24.3615 1.45809 24.3615 2.825V15.375ZM33.8163 8.975C33.8163 10.1072 32.8985 11.025 31.7663 11.025H23.8663C22.7341 11.025 21.8163 10.1072 21.8163 8.975V8.975C21.8163 7.84282 22.7341 6.925 23.8663 6.925H31.7663C32.8985 6.925 33.8163 7.84282 33.8163 8.975V8.975Z" fill="#BAC6D8"/>
<path d="M40.9585 17.85C39.3079 17.85 38.2021 16.1532 38.8687 14.6432L44.3886 2.1385C44.8685 1.05139 45.9448 0.35 47.1331 0.35H48.1007C49.2877 0.35 50.3631 1.04988 50.8437 2.13522L56.3603 14.592C57.0393 16.1252 55.9168 17.85 54.2399 17.85V17.85C53.2833 17.85 52.4249 17.2626 52.0784 16.3709L48.1187 6.1801C47.9545 5.7574 47.3575 5.7541 47.1886 6.17496L43.0784 16.4165C42.7309 17.2825 41.8916 17.85 40.9585 17.85V17.85ZM44.2488 14.45C42.9921 14.45 42.1114 13.2095 42.5259 12.0232V12.0232C42.7817 11.2906 43.4728 10.8 44.2488 10.8H51.3575C52.1334 10.8 52.8245 11.2906 53.0804 12.0232V12.0232C53.4948 13.2095 52.6142 14.45 51.3575 14.45H44.2488Z" fill="#BAC6D8"/>
<path d="M61.6814 17.85C60.3145 17.85 59.2064 16.7419 59.2064 15.375V2.825C59.2064 1.4581 60.3145 0.35 61.6814 0.35V0.35C63.0483 0.35 64.1564 1.4581 64.1564 2.825V15.375C64.1564 16.7419 63.0483 17.85 61.6814 17.85V17.85Z" fill="#BAC6D8"/>
<path d="M69.3163 8.975C69.3163 7.95327 70.1446 7.125 71.1663 7.125H78.5031C79.5249 7.125 80.3531 7.95327 80.3531 8.975V8.975C80.3531 9.99673 79.5249 10.825 78.5031 10.825H71.1663C70.1446 10.825 69.3163 9.99673 69.3163 8.975V8.975ZM72.5781 13.525C72.5781 13.8011 72.802 14.025 73.0781 14.025H79.8156C80.8719 14.025 81.7281 14.8813 81.7281 15.9375V15.9375C81.7281 16.9937 80.8719 17.85 79.8156 17.85H70.6781C69.0213 17.85 67.6781 16.5069 67.6781 14.85V3.35C67.6781 1.69315 69.0213 0.35 70.6781 0.35H79.4906C80.5469 0.35 81.4031 1.20626 81.4031 2.2625V2.2625C81.4031 3.31874 80.5469 4.175 79.4906 4.175H73.0781C72.802 4.175 72.5781 4.39886 72.5781 4.675V13.525Z" fill="#BAC6D8"/>
<path d="M86.95 17.85C85.5831 17.85 84.475 16.7419 84.475 15.375V3.35C84.475 1.69315 85.8181 0.35 87.475 0.35H92.475C94.075 0.35 95.45 0.608334 96.6 1.125C97.7667 1.64167 98.6667 2.39167 99.3 3.375C99.9333 4.34167 100.25 5.49167 100.25 6.825C100.25 8.14167 99.9333 9.28333 99.3 10.25C98.6667 11.2167 97.7667 11.9667 96.6 12.5C95.45 13.0167 94.075 13.275 92.475 13.275H88.7881C88.2171 13.275 87.9345 12.5816 88.3429 12.1825V12.1825C88.7462 11.7884 89.425 12.0741 89.425 12.6381V15.8577C89.425 16.958 88.533 17.85 87.4327 17.85H86.95ZM89.425 10.0301C89.425 10.6191 88.7084 10.9089 88.2989 10.4855V10.4855C87.8969 10.0698 88.1915 9.375 88.7699 9.375H92.175C93.2083 9.375 93.975 9.15 94.475 8.7C94.9917 8.25 95.25 7.625 95.25 6.825C95.25 6.00833 94.9917 5.375 94.475 4.925C93.975 4.475 93.2083 4.25 92.175 4.25H88.7699C88.1915 4.25 87.8969 3.55523 88.2989 3.13946V3.13946C88.7084 2.71608 89.425 3.00591 89.425 3.59487V10.0301Z" fill="#BAC6D8"/>
</g>
<defs>
<filter id="filter0_d_212_31" x="0.299988" y="0" width="99.95" height="20.2" filterUnits="userSpaceOnUse" color-interpolation-filters="sRGB">
<feFlood flood-opacity="0" result="BackgroundImageFix"/>
<feColorMatrix in="SourceAlpha" type="matrix" values="0 0 0 0 0 0 0 0 0 0 0 0 0 0 0 0 0 0 127 0" result="hardAlpha"/>
<feOffset dx="-2" dy="2"/>
<feComposite in2="hardAlpha" operator="out"/>
<feColorMatrix type="matrix" values="0 0 0 0 0.0745098 0 0 0 0 0.0901961 0 0 0 0 0.180392 0 0 0 1 0"/>
<feBlend mode="normal" in2="BackgroundImageFix" result="effect1_dropShadow_212_31"/>
<feBlend mode="normal" in="SourceGraphic" in2="effect1_dropShadow_212_31" result="shape"/>
</filter>
</defs>
</svg>
